<svg xmlns="http://www.w3.org/2000/svg" width="440" height="600" viewBox="0 0 440 600"><title>Olívia Aurelle — fiktív, 26 éves digitális karakter</title><view id="look0" viewBox="0 0 440 600"/><view id="look1" viewBox="440 0 440 600"/><view id="look2" viewBox="880 0 440 600"/><defs><linearGradient id="skin"><stop stop-color="#825242"/><stop offset="1" stop-color="#825242" stop-opacity=".85"/></linearGradient><radialGradient id="bg0" cx="75%" cy="25%" r="90%"><stop stop-color="#4c4239"/><stop offset="1" stop-color="#101210"/></radialGradient><linearGradient id="dress0"><stop stop-color="#aa9473"/><stop offset="1" stop-color="#101211"/></linearGradient><radialGradient id="bg1" cx="75%" cy="25%" r="90%"><stop stop-color="#283c3a"/><stop offset="1" stop-color="#101210"/></radialGradient><linearGradient id="dress1"><stop stop-color="#5b2734"/><stop offset="1" stop-color="#101211"/></linearGradient><radialGradient id="bg2" cx="75%" cy="25%" r="90%"><stop stop-color="#3c2c39"/><stop offset="1" stop-color="#101210"/></radialGradient><linearGradient id="dress2"><stop stop-color="#604b38"/><stop offset="1" stop-color="#101211"/></linearGradient><linearGradient id="fade" x2="0" y2="1"><stop stop-color="#0c0e0d" stop-opacity="0"/><stop offset="1" stop-color="#0c0e0d"/></linearGradient></defs><g transform="translate(0,0)"><rect width="440" height="600" fill="url(#bg0)"/><circle cx="370" cy="130" r="170" fill="#c6ad76" opacity=".05"/><path d="M35 0v600M395 0v600M0 80h440" stroke="#c6ad76" opacity=".15"/><path d="M50 600V317Q90 250 130 340V600M355 600V270" stroke="#c6ad76" fill="none" opacity=".15"/><g transform="rotate(3.3000000000000003 230 191)"><path d="M145 381Q100 91 230 96Q360 91 318 381Z" fill="#74322b"/><path d="M145 136 Q120 281 155 421" fill="none" stroke="#74322b" stroke-width="3" opacity=".7"/><path d="M152 148.62206477211845 Q128 281 162 421" fill="none" stroke="#74322b" stroke-width="3" opacity=".7"/><path d="M159 149.63946140238522 Q136 281 169 421" fill="none" stroke="#74322b" stroke-width="3" opacity=".7"/><path d="M166 138.116800120898 Q144 281 176 421" fill="none" stroke="#74322b" stroke-width="3" opacity=".7"/><path d="M173 124.64796257038108 Q152 281 183 421" fill="none" stroke="#74322b" stroke-width="3" opacity=".7"/><path d="M180 121.61613588005292 Q160 281 190 421" fill="none" stroke="#74322b" stroke-width="3" opacity=".7"/><path d="M187 131.8087675270161 Q168 281 197 421" fill="none" stroke="#74322b" stroke-width="3" opacity=".7"/><path d="M194 145.85479898078182 Q176 281 204 421" fill="none" stroke="#74322b" stroke-width="3" opacity=".7"/><path d="M201 150.84037369935072 Q184 281 211 421" fill="none" stroke="#74322b" stroke-width="3" opacity=".7"/><path d="M208 142.18177727862636 Q192 281 218 421" fill="none" stroke="#74322b" stroke-width="3" opacity=".7"/><path d="M215 127.83968333665945 Q200 281 225 421" fill="none" stroke="#74322b" stroke-width="3" opacity=".7"/><path d="M222 121.00014690173944 Q208 281 232 421" fill="none" stroke="#74322b" stroke-width="3" opacity=".7"/><path d="M198 236V328L144 353Q230 426 318 353L262 328V236" fill="url(#skin)"/><path d="M193 273Q230 314 262 271V289Q230 319 193 299" fill="#523421" opacity=".15"/><ellipse cx="230" cy="191" rx="56" ry="78" fill="url(#skin)"/><ellipse cx="174" cy="206" rx="8" ry="19" fill="#825242"/><ellipse cx="286" cy="206" rx="8" ry="19" fill="#825242"/><path d="M162 197Q149 66 242 99Q330 95 299 226Q279 144 245 131Q200 149 162 197" fill="#74322b"/><path d="M193 184Q206 175 220 182M240 182Q253 175 267 184" fill="none" stroke="#74322b" stroke-width="3"/><path d="M193 196Q205 189 219 197M241 197Q254 189 267 196" fill="none" stroke="#362824" stroke-width="2"/><ellipse cx="206" cy="196" rx="4" ry="4" fill="#322f2b"/><ellipse cx="254" cy="196" rx="4" ry="4" fill="#322f2b"/><path d="M232 199L225 221Q231 225 238 220" fill="none" stroke="#9a6650" opacity=".6"/><path d="M213 239Q226 232 230 237Q238 233 248 239Q232 252 213 239" fill="#a66162"/><path d="M157 341Q100 350 84 600H373Q356 349 303 341L253 396L213 396Z" fill="url(#dress0)"/><path d="M156 349L188 454L226 400L269 454L306 349" stroke="#c6ad76" stroke-width="1" fill="none" opacity=".5"/><path d="M202 316Q230 368 259 317" fill="none" stroke="#c6ad76" stroke-width="2"/><circle cx="230" cy="345" r="4" fill="#c6ad76"/><ellipse cx="174" cy="233" rx="4" ry="13" fill="none" stroke="#c6ad76" stroke-width="2"/><ellipse cx="286" cy="233" rx="4" ry="13" fill="none" stroke="#c6ad76" stroke-width="2"/></g><rect y="500" width="440" height="100" fill="url(#fade)"/><text x="24" y="568" fill="#c6ad76" font-family="serif" font-size="11" letter-spacing="3">NOIR ATELIER / 188 · 01</text><text x="24" y="586" fill="#b9b3a3" font-family="sans-serif" font-size="9" letter-spacing="2">FIKTÍV DIGITÁLIS PORTRÉ · 21+</text></g><g transform="translate(440,0)"><rect width="440" height="600" fill="url(#bg1)"/><circle cx="95" cy="130" r="170" fill="#8eada5" opacity=".05"/><path d="M35 0v600M395 0v600M0 80h440" stroke="#8eada5" opacity=".15"/><path d="M50 600V317Q90 250 130 340V600M355 600V270" stroke="#8eada5" fill="none" opacity=".15"/><g transform="rotate(3.3000000000000003 230 191)"><path d="M145 381Q100 91 230 96Q360 91 318 381Z" fill="#74322b"/><path d="M145 136 Q120 281 155 421" fill="none" stroke="#74322b" stroke-width="3" opacity=".7"/><path d="M152 148.62206477211845 Q128 281 162 421" fill="none" stroke="#74322b" stroke-width="3" opacity=".7"/><path d="M159 149.63946140238522 Q136 281 169 421" fill="none" stroke="#74322b" stroke-width="3" opacity=".7"/><path d="M166 138.116800120898 Q144 281 176 421" fill="none" stroke="#74322b" stroke-width="3" opacity=".7"/><path d="M173 124.64796257038108 Q152 281 183 421" fill="none" stroke="#74322b" stroke-width="3" opacity=".7"/><path d="M180 121.61613588005292 Q160 281 190 421" fill="none" stroke="#74322b" stroke-width="3" opacity=".7"/><path d="M187 131.8087675270161 Q168 281 197 421" fill="none" stroke="#74322b" stroke-width="3" opacity=".7"/><path d="M194 145.85479898078182 Q176 281 204 421" fill="none" stroke="#74322b" stroke-width="3" opacity=".7"/><path d="M201 150.84037369935072 Q184 281 211 421" fill="none" stroke="#74322b" stroke-width="3" opacity=".7"/><path d="M208 142.18177727862636 Q192 281 218 421" fill="none" stroke="#74322b" stroke-width="3" opacity=".7"/><path d="M215 127.83968333665945 Q200 281 225 421" fill="none" stroke="#74322b" stroke-width="3" opacity=".7"/><path d="M222 121.00014690173944 Q208 281 232 421" fill="none" stroke="#74322b" stroke-width="3" opacity=".7"/><path d="M198 236V328L144 353Q230 426 318 353L262 328V236" fill="url(#skin)"/><path d="M193 273Q230 314 262 271V289Q230 319 193 299" fill="#523421" opacity=".15"/><ellipse cx="230" cy="191" rx="56" ry="78" fill="url(#skin)"/><ellipse cx="174" cy="206" rx="8" ry="19" fill="#825242"/><ellipse cx="286" cy="206" rx="8" ry="19" fill="#825242"/><path d="M162 197Q149 66 242 99Q330 95 299 226Q279 144 245 131Q200 149 162 197" fill="#74322b"/><path d="M193 184Q206 175 220 182M240 182Q253 175 267 184" fill="none" stroke="#74322b" stroke-width="3"/><path d="M193 196Q205 189 219 197M241 197Q254 189 267 196" fill="none" stroke="#362824" stroke-width="2"/><ellipse cx="206" cy="196" rx="4" ry="4" fill="#322f2b"/><ellipse cx="254" cy="196" rx="4" ry="4" fill="#322f2b"/><path d="M232 199L225 221Q231 225 238 220" fill="none" stroke="#9a6650" opacity=".6"/><path d="M213 239Q226 232 230 237Q238 233 248 239Q232 252 213 239" fill="#a66162"/><path d="M157 341Q100 350 84 600H373Q356 349 303 341L253 396L213 396Z" fill="url(#dress1)"/><path d="M156 349L188 454L226 400L269 454L306 349" stroke="#8eada5" stroke-width="1" fill="none" opacity=".5"/><path d="M202 316Q230 368 259 317" fill="none" stroke="#8eada5" stroke-width="2"/><circle cx="230" cy="345" r="4" fill="#8eada5"/><ellipse cx="174" cy="233" rx="4" ry="13" fill="none" stroke="#8eada5" stroke-width="2"/><ellipse cx="286" cy="233" rx="4" ry="13" fill="none" stroke="#8eada5" stroke-width="2"/></g><rect y="500" width="440" height="100" fill="url(#fade)"/><text x="24" y="568" fill="#8eada5" font-family="serif" font-size="11" letter-spacing="3">NOIR ATELIER / 188 · 02</text><text x="24" y="586" fill="#b9b3a3" font-family="sans-serif" font-size="9" letter-spacing="2">FIKTÍV DIGITÁLIS PORTRÉ · 21+</text></g><g transform="translate(880,0)"><rect width="440" height="600" fill="url(#bg2)"/><circle cx="370" cy="130" r="170" fill="#b196b0" opacity=".05"/><path d="M35 0v600M395 0v600M0 80h440" stroke="#b196b0" opacity=".15"/><path d="M50 600V317Q90 250 130 340V600M355 600V270" stroke="#b196b0" fill="none" opacity=".15"/><g transform="rotate(3.3000000000000003 230 191)"><path d="M145 381Q100 91 230 96Q360 91 318 381Z" fill="#74322b"/><path d="M145 136 Q120 281 155 421" fill="none" stroke="#74322b" stroke-width="3" opacity=".7"/><path d="M152 148.62206477211845 Q128 281 162 421" fill="none" stroke="#74322b" stroke-width="3" opacity=".7"/><path d="M159 149.63946140238522 Q136 281 169 421" fill="none" stroke="#74322b" stroke-width="3" opacity=".7"/><path d="M166 138.116800120898 Q144 281 176 421" fill="none" stroke="#74322b" stroke-width="3" opacity=".7"/><path d="M173 124.64796257038108 Q152 281 183 421" fill="none" stroke="#74322b" stroke-width="3" opacity=".7"/><path d="M180 121.61613588005292 Q160 281 190 421" fill="none" stroke="#74322b" stroke-width="3" opacity=".7"/><path d="M187 131.8087675270161 Q168 281 197 421" fill="none" stroke="#74322b" stroke-width="3" opacity=".7"/><path d="M194 145.85479898078182 Q176 281 204 421" fill="none" stroke="#74322b" stroke-width="3" opacity=".7"/><path d="M201 150.84037369935072 Q184 281 211 421" fill="none" stroke="#74322b" stroke-width="3" opacity=".7"/><path d="M208 142.18177727862636 Q192 281 218 421" fill="none" stroke="#74322b" stroke-width="3" opacity=".7"/><path d="M215 127.83968333665945 Q200 281 225 421" fill="none" stroke="#74322b" stroke-width="3" opacity=".7"/><path d="M222 121.00014690173944 Q208 281 232 421" fill="none" stroke="#74322b" stroke-width="3" opacity=".7"/><path d="M198 236V328L144 353Q230 426 318 353L262 328V236" fill="url(#skin)"/><path d="M193 273Q230 314 262 271V289Q230 319 193 299" fill="#523421" opacity=".15"/><ellipse cx="230" cy="191" rx="56" ry="78" fill="url(#skin)"/><ellipse cx="174" cy="206" rx="8" ry="19" fill="#825242"/><ellipse cx="286" cy="206" rx="8" ry="19" fill="#825242"/><path d="M162 197Q149 66 242 99Q330 95 299 226Q279 144 245 131Q200 149 162 197" fill="#74322b"/><path d="M193 184Q206 175 220 182M240 182Q253 175 267 184" fill="none" stroke="#74322b" stroke-width="3"/><path d="M193 196Q205 189 219 197M241 197Q254 189 267 196" fill="none" stroke="#362824" stroke-width="2"/><ellipse cx="206" cy="196" rx="4" ry="4" fill="#322f2b"/><ellipse cx="254" cy="196" rx="4" ry="4" fill="#322f2b"/><path d="M232 199L225 221Q231 225 238 220" fill="none" stroke="#9a6650" opacity=".6"/><path d="M213 239Q226 232 230 237Q238 233 248 239Q232 252 213 239" fill="#a66162"/><path d="M157 341Q100 350 84 600H373Q356 349 303 341L253 396L213 396Z" fill="url(#dress2)"/><path d="M156 349L188 454L226 400L269 454L306 349" stroke="#b196b0" stroke-width="1" fill="none" opacity=".5"/><path d="M202 316Q230 368 259 317" fill="none" stroke="#b196b0" stroke-width="2"/><circle cx="230" cy="345" r="4" fill="#b196b0"/><ellipse cx="174" cy="233" rx="4" ry="13" fill="none" stroke="#b196b0" stroke-width="2"/><ellipse cx="286" cy="233" rx="4" ry="13" fill="none" stroke="#b196b0" stroke-width="2"/></g><rect y="500" width="440" height="100" fill="url(#fade)"/><text x="24" y="568" fill="#b196b0" font-family="serif" font-size="11" letter-spacing="3">NOIR ATELIER / 188 · 03</text><text x="24" y="586" fill="#b9b3a3" font-family="sans-serif" font-size="9" letter-spacing="2">FIKTÍV DIGITÁLIS PORTRÉ · 21+</text></g></svg>