<svg xmlns="http://www.w3.org/2000/svg" width="440" height="600" viewBox="0 0 440 600"><title>Réka Solenne — fiktív, 33 éves digitális karakter</title><view id="look0" viewBox="0 0 440 600"/><view id="look1" viewBox="440 0 440 600"/><view id="look2" viewBox="880 0 440 600"/><defs><linearGradient id="skin"><stop stop-color="#ac7659"/><stop offset="1" stop-color="#ac7659" stop-opacity=".85"/></linearGradient><radialGradient id="bg0" cx="75%" cy="25%" r="90%"><stop stop-color="#4c4239"/><stop offset="1" stop-color="#101210"/></radialGradient><linearGradient id="dress0"><stop stop-color="#28463d"/><stop offset="1" stop-color="#101211"/></linearGradient><radialGradient id="bg1" cx="75%" cy="25%" r="90%"><stop stop-color="#283c3a"/><stop offset="1" stop-color="#101210"/></radialGradient><linearGradient id="dress1"><stop stop-color="#253744"/><stop offset="1" stop-color="#101211"/></linearGradient><radialGradient id="bg2" cx="75%" cy="25%" r="90%"><stop stop-color="#3c2c39"/><stop offset="1" stop-color="#101210"/></radialGradient><linearGradient id="dress2"><stop stop-color="#2e2b35"/><stop offset="1" stop-color="#101211"/></linearGradient><linearGradient id="fade" x2="0" y2="1"><stop stop-color="#0c0e0d" stop-opacity="0"/><stop offset="1" stop-color="#0c0e0d"/></linearGradient></defs><g transform="translate(0,0)"><rect width="440" height="600" fill="url(#bg0)"/><circle cx="370" cy="130" r="170" fill="#c6ad76" opacity=".05"/><path d="M35 0v600M395 0v600M0 80h440" stroke="#c6ad76" opacity=".15"/><path d="M50 600V294Q90 250 130 340V600M355 600V270" stroke="#c6ad76" fill="none" opacity=".15"/><g transform="rotate(-2.2 220 197)"><path d="M135 387Q90 97 220 102Q350 97 308 387Z" fill="#cec5af"/><path d="M135 142 Q110 287 145 307" fill="none" stroke="#cec5af" stroke-width="3" opacity=".7"/><path d="M142 154.62206477211845 Q118 287 152 307" fill="none" stroke="#cec5af" stroke-width="3" opacity=".7"/><path d="M149 155.63946140238522 Q126 287 159 307" fill="none" stroke="#cec5af" stroke-width="3" opacity=".7"/><path d="M156 144.116800120898 Q134 287 166 307" fill="none" stroke="#cec5af" stroke-width="3" opacity=".7"/><path d="M163 130.64796257038108 Q142 287 173 307" fill="none" stroke="#cec5af" stroke-width="3" opacity=".7"/><path d="M170 127.61613588005292 Q150 287 180 307" fill="none" stroke="#cec5af" stroke-width="3" opacity=".7"/><path d="M177 137.8087675270161 Q158 287 187 307" fill="none" stroke="#cec5af" stroke-width="3" opacity=".7"/><path d="M184 151.85479898078182 Q166 287 194 307" fill="none" stroke="#cec5af" stroke-width="3" opacity=".7"/><path d="M191 156.84037369935072 Q174 287 201 307" fill="none" stroke="#cec5af" stroke-width="3" opacity=".7"/><path d="M198 148.18177727862636 Q182 287 208 307" fill="none" stroke="#cec5af" stroke-width="3" opacity=".7"/><path d="M205 133.83968333665945 Q190 287 215 307" fill="none" stroke="#cec5af" stroke-width="3" opacity=".7"/><path d="M212 127.00014690173944 Q198 287 222 307" fill="none" stroke="#cec5af" stroke-width="3" opacity=".7"/><path d="M188 242V334L134 359Q220 432 308 359L252 334V242" fill="url(#skin)"/><path d="M183 279Q220 320 252 277V295Q220 325 183 305" fill="#523421" opacity=".15"/><ellipse cx="220" cy="197" rx="57" ry="80" fill="url(#skin)"/><ellipse cx="163" cy="212" rx="8" ry="19" fill="#ac7659"/><ellipse cx="277" cy="212" rx="8" ry="19" fill="#ac7659"/><path d="M151 203Q138 72 232 105Q320 101 290 232Q270 150 235 137Q190 155 151 203" fill="#cec5af"/><path d="M183 190Q196 181 210 188M230 188Q243 181 257 190" fill="none" stroke="#cec5af" stroke-width="3"/><path d="M183 202Q195 195 209 203M231 203Q244 195 257 202" fill="none" stroke="#362824" stroke-width="2"/><ellipse cx="196" cy="202" rx="4" ry="4" fill="#424941"/><ellipse cx="244" cy="202" rx="4" ry="4" fill="#424941"/><path d="M222 205L215 227Q221 231 228 226" fill="none" stroke="#9a6650" opacity=".6"/><path d="M203 245Q216 238 220 243Q228 239 238 245Q222 258 203 245" fill="#a66162"/><path d="M147 347Q90 356 74 600H363Q346 355 293 347L243 402L203 402Z" fill="url(#dress0)"/><path d="M146 355L178 460L216 406L259 460L296 355" stroke="#c6ad76" stroke-width="1" fill="none" opacity=".5"/><path d="M192 322Q220 374 249 323" fill="none" stroke="#c6ad76" stroke-width="2"/><circle cx="220" cy="351" r="4" fill="#c6ad76"/><ellipse cx="163" cy="239" rx="4" ry="13" fill="none" stroke="#c6ad76" stroke-width="2"/><ellipse cx="277" cy="239" rx="4" ry="13" fill="none" stroke="#c6ad76" stroke-width="2"/><path d="M168 152Q198 79 268 126Q224 162 168 152" fill="#cec5af"/></g><rect y="500" width="440" height="100" fill="url(#fade)"/><text x="24" y="568" fill="#c6ad76" font-family="serif" font-size="11" letter-spacing="3">NOIR ATELIER / 165 · 01</text><text x="24" y="586" fill="#b9b3a3" font-family="sans-serif" font-size="9" letter-spacing="2">FIKTÍV DIGITÁLIS PORTRÉ · 21+</text></g><g transform="translate(440,0)"><rect width="440" height="600" fill="url(#bg1)"/><circle cx="95" cy="130" r="170" fill="#8eada5" opacity=".05"/><path d="M35 0v600M395 0v600M0 80h440" stroke="#8eada5" opacity=".15"/><path d="M50 600V294Q90 250 130 340V600M355 600V270" stroke="#8eada5" fill="none" opacity=".15"/><g transform="rotate(-2.2 220 197)"><path d="M135 387Q90 97 220 102Q350 97 308 387Z" fill="#cec5af"/><path d="M135 142 Q110 287 145 307" fill="none" stroke="#cec5af" stroke-width="3" opacity=".7"/><path d="M142 154.62206477211845 Q118 287 152 307" fill="none" stroke="#cec5af" stroke-width="3" opacity=".7"/><path d="M149 155.63946140238522 Q126 287 159 307" fill="none" stroke="#cec5af" stroke-width="3" opacity=".7"/><path d="M156 144.116800120898 Q134 287 166 307" fill="none" stroke="#cec5af" stroke-width="3" opacity=".7"/><path d="M163 130.64796257038108 Q142 287 173 307" fill="none" stroke="#cec5af" stroke-width="3" opacity=".7"/><path d="M170 127.61613588005292 Q150 287 180 307" fill="none" stroke="#cec5af" stroke-width="3" opacity=".7"/><path d="M177 137.8087675270161 Q158 287 187 307" fill="none" stroke="#cec5af" stroke-width="3" opacity=".7"/><path d="M184 151.85479898078182 Q166 287 194 307" fill="none" stroke="#cec5af" stroke-width="3" opacity=".7"/><path d="M191 156.84037369935072 Q174 287 201 307" fill="none" stroke="#cec5af" stroke-width="3" opacity=".7"/><path d="M198 148.18177727862636 Q182 287 208 307" fill="none" stroke="#cec5af" stroke-width="3" opacity=".7"/><path d="M205 133.83968333665945 Q190 287 215 307" fill="none" stroke="#cec5af" stroke-width="3" opacity=".7"/><path d="M212 127.00014690173944 Q198 287 222 307" fill="none" stroke="#cec5af" stroke-width="3" opacity=".7"/><path d="M188 242V334L134 359Q220 432 308 359L252 334V242" fill="url(#skin)"/><path d="M183 279Q220 320 252 277V295Q220 325 183 305" fill="#523421" opacity=".15"/><ellipse cx="220" cy="197" rx="57" ry="80" fill="url(#skin)"/><ellipse cx="163" cy="212" rx="8" ry="19" fill="#ac7659"/><ellipse cx="277" cy="212" rx="8" ry="19" fill="#ac7659"/><path d="M151 203Q138 72 232 105Q320 101 290 232Q270 150 235 137Q190 155 151 203" fill="#cec5af"/><path d="M183 190Q196 181 210 188M230 188Q243 181 257 190" fill="none" stroke="#cec5af" stroke-width="3"/><path d="M183 202Q195 195 209 203M231 203Q244 195 257 202" fill="none" stroke="#362824" stroke-width="2"/><ellipse cx="196" cy="202" rx="4" ry="4" fill="#424941"/><ellipse cx="244" cy="202" rx="4" ry="4" fill="#424941"/><path d="M222 205L215 227Q221 231 228 226" fill="none" stroke="#9a6650" opacity=".6"/><path d="M203 245Q216 238 220 243Q228 239 238 245Q222 258 203 245" fill="#a66162"/><path d="M147 347Q90 356 74 600H363Q346 355 293 347L243 402L203 402Z" fill="url(#dress1)"/><path d="M146 355L178 460L216 406L259 460L296 355" stroke="#8eada5" stroke-width="1" fill="none" opacity=".5"/><path d="M192 322Q220 374 249 323" fill="none" stroke="#8eada5" stroke-width="2"/><circle cx="220" cy="351" r="4" fill="#8eada5"/><ellipse cx="163" cy="239" rx="4" ry="13" fill="none" stroke="#8eada5" stroke-width="2"/><ellipse cx="277" cy="239" rx="4" ry="13" fill="none" stroke="#8eada5" stroke-width="2"/><path d="M168 152Q198 79 268 126Q224 162 168 152" fill="#cec5af"/></g><rect y="500" width="440" height="100" fill="url(#fade)"/><text x="24" y="568" fill="#8eada5" font-family="serif" font-size="11" letter-spacing="3">NOIR ATELIER / 165 · 02</text><text x="24" y="586" fill="#b9b3a3" font-family="sans-serif" font-size="9" letter-spacing="2">FIKTÍV DIGITÁLIS PORTRÉ · 21+</text></g><g transform="translate(880,0)"><rect width="440" height="600" fill="url(#bg2)"/><circle cx="370" cy="130" r="170" fill="#b196b0" opacity=".05"/><path d="M35 0v600M395 0v600M0 80h440" stroke="#b196b0" opacity=".15"/><path d="M50 600V294Q90 250 130 340V600M355 600V270" stroke="#b196b0" fill="none" opacity=".15"/><g transform="rotate(-2.2 220 197)"><path d="M135 387Q90 97 220 102Q350 97 308 387Z" fill="#cec5af"/><path d="M135 142 Q110 287 145 307" fill="none" stroke="#cec5af" stroke-width="3" opacity=".7"/><path d="M142 154.62206477211845 Q118 287 152 307" fill="none" stroke="#cec5af" stroke-width="3" opacity=".7"/><path d="M149 155.63946140238522 Q126 287 159 307" fill="none" stroke="#cec5af" stroke-width="3" opacity=".7"/><path d="M156 144.116800120898 Q134 287 166 307" fill="none" stroke="#cec5af" stroke-width="3" opacity=".7"/><path d="M163 130.64796257038108 Q142 287 173 307" fill="none" stroke="#cec5af" stroke-width="3" opacity=".7"/><path d="M170 127.61613588005292 Q150 287 180 307" fill="none" stroke="#cec5af" stroke-width="3" opacity=".7"/><path d="M177 137.8087675270161 Q158 287 187 307" fill="none" stroke="#cec5af" stroke-width="3" opacity=".7"/><path d="M184 151.85479898078182 Q166 287 194 307" fill="none" stroke="#cec5af" stroke-width="3" opacity=".7"/><path d="M191 156.84037369935072 Q174 287 201 307" fill="none" stroke="#cec5af" stroke-width="3" opacity=".7"/><path d="M198 148.18177727862636 Q182 287 208 307" fill="none" stroke="#cec5af" stroke-width="3" opacity=".7"/><path d="M205 133.83968333665945 Q190 287 215 307" fill="none" stroke="#cec5af" stroke-width="3" opacity=".7"/><path d="M212 127.00014690173944 Q198 287 222 307" fill="none" stroke="#cec5af" stroke-width="3" opacity=".7"/><path d="M188 242V334L134 359Q220 432 308 359L252 334V242" fill="url(#skin)"/><path d="M183 279Q220 320 252 277V295Q220 325 183 305" fill="#523421" opacity=".15"/><ellipse cx="220" cy="197" rx="57" ry="80" fill="url(#skin)"/><ellipse cx="163" cy="212" rx="8" ry="19" fill="#ac7659"/><ellipse cx="277" cy="212" rx="8" ry="19" fill="#ac7659"/><path d="M151 203Q138 72 232 105Q320 101 290 232Q270 150 235 137Q190 155 151 203" fill="#cec5af"/><path d="M183 190Q196 181 210 188M230 188Q243 181 257 190" fill="none" stroke="#cec5af" stroke-width="3"/><path d="M183 202Q195 195 209 203M231 203Q244 195 257 202" fill="none" stroke="#362824" stroke-width="2"/><ellipse cx="196" cy="202" rx="4" ry="4" fill="#424941"/><ellipse cx="244" cy="202" rx="4" ry="4" fill="#424941"/><path d="M222 205L215 227Q221 231 228 226" fill="none" stroke="#9a6650" opacity=".6"/><path d="M203 245Q216 238 220 243Q228 239 238 245Q222 258 203 245" fill="#a66162"/><path d="M147 347Q90 356 74 600H363Q346 355 293 347L243 402L203 402Z" fill="url(#dress2)"/><path d="M146 355L178 460L216 406L259 460L296 355" stroke="#b196b0" stroke-width="1" fill="none" opacity=".5"/><path d="M192 322Q220 374 249 323" fill="none" stroke="#b196b0" stroke-width="2"/><circle cx="220" cy="351" r="4" fill="#b196b0"/><ellipse cx="163" cy="239" rx="4" ry="13" fill="none" stroke="#b196b0" stroke-width="2"/><ellipse cx="277" cy="239" rx="4" ry="13" fill="none" stroke="#b196b0" stroke-width="2"/><path d="M168 152Q198 79 268 126Q224 162 168 152" fill="#cec5af"/></g><rect y="500" width="440" height="100" fill="url(#fade)"/><text x="24" y="568" fill="#b196b0" font-family="serif" font-size="11" letter-spacing="3">NOIR ATELIER / 165 · 03</text><text x="24" y="586" fill="#b9b3a3" font-family="sans-serif" font-size="9" letter-spacing="2">FIKTÍV DIGITÁLIS PORTRÉ · 21+</text></g></svg>