<svg xmlns="http://www.w3.org/2000/svg" width="440" height="600" viewBox="0 0 440 600"><title>Eliza Valmont — fiktív, 49 éves digitális karakter</title><view id="look0" viewBox="0 0 440 600"/><view id="look1" viewBox="440 0 440 600"/><view id="look2" viewBox="880 0 440 600"/><defs><linearGradient id="skin"><stop stop-color="#ac7659"/><stop offset="1" stop-color="#ac7659" stop-opacity=".85"/></linearGradient><radialGradient id="bg0" cx="75%" cy="25%" r="90%"><stop stop-color="#4c4239"/><stop offset="1" stop-color="#101210"/></radialGradient><linearGradient id="dress0"><stop stop-color="#181a1b"/><stop offset="1" stop-color="#101211"/></linearGradient><radialGradient id="bg1" cx="75%" cy="25%" r="90%"><stop stop-color="#283c3a"/><stop offset="1" stop-color="#101210"/></radialGradient><linearGradient id="dress1"><stop stop-color="#595451"/><stop offset="1" stop-color="#101211"/></linearGradient><radialGradient id="bg2" cx="75%" cy="25%" r="90%"><stop stop-color="#3c2c39"/><stop offset="1" stop-color="#101210"/></radialGradient><linearGradient id="dress2"><stop stop-color="#5e405e"/><stop offset="1" stop-color="#101211"/></linearGradient><linearGradient id="fade" x2="0" y2="1"><stop stop-color="#0c0e0d" stop-opacity="0"/><stop offset="1" stop-color="#0c0e0d"/></linearGradient></defs><g transform="translate(0,0)"><rect width="440" height="600" fill="url(#bg0)"/><circle cx="370" cy="130" r="170" fill="#c6ad76" opacity=".05"/><path d="M35 0v600M395 0v600M0 80h440" stroke="#c6ad76" opacity=".15"/><path d="M50 600V336Q90 250 130 340V600M355 600V270" stroke="#c6ad76" fill="none" opacity=".15"/><g transform="rotate(-4.4 205 188)"><path d="M120 378Q75 88 205 93Q335 88 293 378Z" fill="#211714"/><path d="M120 133 Q95 278 130 418" fill="none" stroke="#211714" stroke-width="3" opacity=".7"/><path d="M127 145.62206477211845 Q103 278 137 418" fill="none" stroke="#211714" stroke-width="3" opacity=".7"/><path d="M134 146.63946140238522 Q111 278 144 418" fill="none" stroke="#211714" stroke-width="3" opacity=".7"/><path d="M141 135.116800120898 Q119 278 151 418" fill="none" stroke="#211714" stroke-width="3" opacity=".7"/><path d="M148 121.64796257038108 Q127 278 158 418" fill="none" stroke="#211714" stroke-width="3" opacity=".7"/><path d="M155 118.61613588005292 Q135 278 165 418" fill="none" stroke="#211714" stroke-width="3" opacity=".7"/><path d="M162 128.8087675270161 Q143 278 172 418" fill="none" stroke="#211714" stroke-width="3" opacity=".7"/><path d="M169 142.85479898078182 Q151 278 179 418" fill="none" stroke="#211714" stroke-width="3" opacity=".7"/><path d="M176 147.84037369935072 Q159 278 186 418" fill="none" stroke="#211714" stroke-width="3" opacity=".7"/><path d="M183 139.18177727862636 Q167 278 193 418" fill="none" stroke="#211714" stroke-width="3" opacity=".7"/><path d="M190 124.83968333665945 Q175 278 200 418" fill="none" stroke="#211714" stroke-width="3" opacity=".7"/><path d="M197 118.00014690173944 Q183 278 207 418" fill="none" stroke="#211714" stroke-width="3" opacity=".7"/><path d="M173 233V325L119 350Q205 423 293 350L237 325V233" fill="url(#skin)"/><path d="M168 270Q205 311 237 268V286Q205 316 168 296" fill="#523421" opacity=".15"/><ellipse cx="205" cy="188" rx="59" ry="76" fill="url(#skin)"/><ellipse cx="146" cy="203" rx="8" ry="19" fill="#ac7659"/><ellipse cx="264" cy="203" rx="8" ry="19" fill="#ac7659"/><path d="M134 194Q121 63 217 96Q305 92 277 223Q257 141 220 128Q175 146 134 194" fill="#211714"/><path d="M168 181Q181 172 195 179M215 179Q228 172 242 181" fill="none" stroke="#211714" stroke-width="3"/><path d="M168 193Q180 186 194 194M216 194Q229 186 242 193" fill="none" stroke="#362824" stroke-width="2"/><ellipse cx="181" cy="193" rx="4" ry="4" fill="#324e52"/><ellipse cx="229" cy="193" rx="4" ry="4" fill="#324e52"/><path d="M207 196L200 218Q206 222 213 217" fill="none" stroke="#9a6650" opacity=".6"/><path d="M188 236Q201 229 205 234Q213 230 223 236Q207 249 188 236" fill="#8e3e4f"/><path d="M132 338Q75 347 59 600H348Q331 346 278 338L228 393L188 393Z" fill="url(#dress0)"/><path d="M131 346L163 451L201 397L244 451L281 346" stroke="#c6ad76" stroke-width="1" fill="none" opacity=".5"/><path d="M177 313Q205 365 234 314" fill="none" stroke="#c6ad76" stroke-width="2"/><circle cx="205" cy="342" r="4" fill="#c6ad76"/><ellipse cx="146" cy="230" rx="4" ry="13" fill="none" stroke="#c6ad76" stroke-width="2"/><ellipse cx="264" cy="230" rx="4" ry="13" fill="none" stroke="#c6ad76" stroke-width="2"/></g><rect y="500" width="440" height="100" fill="url(#fade)"/><text x="24" y="568" fill="#c6ad76" font-family="serif" font-size="11" letter-spacing="3">NOIR ATELIER / 127 · 01</text><text x="24" y="586" fill="#b9b3a3" font-family="sans-serif" font-size="9" letter-spacing="2">FIKTÍV DIGITÁLIS PORTRÉ · 21+</text></g><g transform="translate(440,0)"><rect width="440" height="600" fill="url(#bg1)"/><circle cx="95" cy="130" r="170" fill="#8eada5" opacity=".05"/><path d="M35 0v600M395 0v600M0 80h440" stroke="#8eada5" opacity=".15"/><path d="M50 600V336Q90 250 130 340V600M355 600V270" stroke="#8eada5" fill="none" opacity=".15"/><g transform="rotate(-4.4 205 188)"><path d="M120 378Q75 88 205 93Q335 88 293 378Z" fill="#211714"/><path d="M120 133 Q95 278 130 418" fill="none" stroke="#211714" stroke-width="3" opacity=".7"/><path d="M127 145.62206477211845 Q103 278 137 418" fill="none" stroke="#211714" stroke-width="3" opacity=".7"/><path d="M134 146.63946140238522 Q111 278 144 418" fill="none" stroke="#211714" stroke-width="3" opacity=".7"/><path d="M141 135.116800120898 Q119 278 151 418" fill="none" stroke="#211714" stroke-width="3" opacity=".7"/><path d="M148 121.64796257038108 Q127 278 158 418" fill="none" stroke="#211714" stroke-width="3" opacity=".7"/><path d="M155 118.61613588005292 Q135 278 165 418" fill="none" stroke="#211714" stroke-width="3" opacity=".7"/><path d="M162 128.8087675270161 Q143 278 172 418" fill="none" stroke="#211714" stroke-width="3" opacity=".7"/><path d="M169 142.85479898078182 Q151 278 179 418" fill="none" stroke="#211714" stroke-width="3" opacity=".7"/><path d="M176 147.84037369935072 Q159 278 186 418" fill="none" stroke="#211714" stroke-width="3" opacity=".7"/><path d="M183 139.18177727862636 Q167 278 193 418" fill="none" stroke="#211714" stroke-width="3" opacity=".7"/><path d="M190 124.83968333665945 Q175 278 200 418" fill="none" stroke="#211714" stroke-width="3" opacity=".7"/><path d="M197 118.00014690173944 Q183 278 207 418" fill="none" stroke="#211714" stroke-width="3" opacity=".7"/><path d="M173 233V325L119 350Q205 423 293 350L237 325V233" fill="url(#skin)"/><path d="M168 270Q205 311 237 268V286Q205 316 168 296" fill="#523421" opacity=".15"/><ellipse cx="205" cy="188" rx="59" ry="76" fill="url(#skin)"/><ellipse cx="146" cy="203" rx="8" ry="19" fill="#ac7659"/><ellipse cx="264" cy="203" rx="8" ry="19" fill="#ac7659"/><path d="M134 194Q121 63 217 96Q305 92 277 223Q257 141 220 128Q175 146 134 194" fill="#211714"/><path d="M168 181Q181 172 195 179M215 179Q228 172 242 181" fill="none" stroke="#211714" stroke-width="3"/><path d="M168 193Q180 186 194 194M216 194Q229 186 242 193" fill="none" stroke="#362824" stroke-width="2"/><ellipse cx="181" cy="193" rx="4" ry="4" fill="#324e52"/><ellipse cx="229" cy="193" rx="4" ry="4" fill="#324e52"/><path d="M207 196L200 218Q206 222 213 217" fill="none" stroke="#9a6650" opacity=".6"/><path d="M188 236Q201 229 205 234Q213 230 223 236Q207 249 188 236" fill="#8e3e4f"/><path d="M132 338Q75 347 59 600H348Q331 346 278 338L228 393L188 393Z" fill="url(#dress1)"/><path d="M131 346L163 451L201 397L244 451L281 346" stroke="#8eada5" stroke-width="1" fill="none" opacity=".5"/><path d="M177 313Q205 365 234 314" fill="none" stroke="#8eada5" stroke-width="2"/><circle cx="205" cy="342" r="4" fill="#8eada5"/><ellipse cx="146" cy="230" rx="4" ry="13" fill="none" stroke="#8eada5" stroke-width="2"/><ellipse cx="264" cy="230" rx="4" ry="13" fill="none" stroke="#8eada5" stroke-width="2"/></g><rect y="500" width="440" height="100" fill="url(#fade)"/><text x="24" y="568" fill="#8eada5" font-family="serif" font-size="11" letter-spacing="3">NOIR ATELIER / 127 · 02</text><text x="24" y="586" fill="#b9b3a3" font-family="sans-serif" font-size="9" letter-spacing="2">FIKTÍV DIGITÁLIS PORTRÉ · 21+</text></g><g transform="translate(880,0)"><rect width="440" height="600" fill="url(#bg2)"/><circle cx="370" cy="130" r="170" fill="#b196b0" opacity=".05"/><path d="M35 0v600M395 0v600M0 80h440" stroke="#b196b0" opacity=".15"/><path d="M50 600V336Q90 250 130 340V600M355 600V270" stroke="#b196b0" fill="none" opacity=".15"/><g transform="rotate(-4.4 205 188)"><path d="M120 378Q75 88 205 93Q335 88 293 378Z" fill="#211714"/><path d="M120 133 Q95 278 130 418" fill="none" stroke="#211714" stroke-width="3" opacity=".7"/><path d="M127 145.62206477211845 Q103 278 137 418" fill="none" stroke="#211714" stroke-width="3" opacity=".7"/><path d="M134 146.63946140238522 Q111 278 144 418" fill="none" stroke="#211714" stroke-width="3" opacity=".7"/><path d="M141 135.116800120898 Q119 278 151 418" fill="none" stroke="#211714" stroke-width="3" opacity=".7"/><path d="M148 121.64796257038108 Q127 278 158 418" fill="none" stroke="#211714" stroke-width="3" opacity=".7"/><path d="M155 118.61613588005292 Q135 278 165 418" fill="none" stroke="#211714" stroke-width="3" opacity=".7"/><path d="M162 128.8087675270161 Q143 278 172 418" fill="none" stroke="#211714" stroke-width="3" opacity=".7"/><path d="M169 142.85479898078182 Q151 278 179 418" fill="none" stroke="#211714" stroke-width="3" opacity=".7"/><path d="M176 147.84037369935072 Q159 278 186 418" fill="none" stroke="#211714" stroke-width="3" opacity=".7"/><path d="M183 139.18177727862636 Q167 278 193 418" fill="none" stroke="#211714" stroke-width="3" opacity=".7"/><path d="M190 124.83968333665945 Q175 278 200 418" fill="none" stroke="#211714" stroke-width="3" opacity=".7"/><path d="M197 118.00014690173944 Q183 278 207 418" fill="none" stroke="#211714" stroke-width="3" opacity=".7"/><path d="M173 233V325L119 350Q205 423 293 350L237 325V233" fill="url(#skin)"/><path d="M168 270Q205 311 237 268V286Q205 316 168 296" fill="#523421" opacity=".15"/><ellipse cx="205" cy="188" rx="59" ry="76" fill="url(#skin)"/><ellipse cx="146" cy="203" rx="8" ry="19" fill="#ac7659"/><ellipse cx="264" cy="203" rx="8" ry="19" fill="#ac7659"/><path d="M134 194Q121 63 217 96Q305 92 277 223Q257 141 220 128Q175 146 134 194" fill="#211714"/><path d="M168 181Q181 172 195 179M215 179Q228 172 242 181" fill="none" stroke="#211714" stroke-width="3"/><path d="M168 193Q180 186 194 194M216 194Q229 186 242 193" fill="none" stroke="#362824" stroke-width="2"/><ellipse cx="181" cy="193" rx="4" ry="4" fill="#324e52"/><ellipse cx="229" cy="193" rx="4" ry="4" fill="#324e52"/><path d="M207 196L200 218Q206 222 213 217" fill="none" stroke="#9a6650" opacity=".6"/><path d="M188 236Q201 229 205 234Q213 230 223 236Q207 249 188 236" fill="#8e3e4f"/><path d="M132 338Q75 347 59 600H348Q331 346 278 338L228 393L188 393Z" fill="url(#dress2)"/><path d="M131 346L163 451L201 397L244 451L281 346" stroke="#b196b0" stroke-width="1" fill="none" opacity=".5"/><path d="M177 313Q205 365 234 314" fill="none" stroke="#b196b0" stroke-width="2"/><circle cx="205" cy="342" r="4" fill="#b196b0"/><ellipse cx="146" cy="230" rx="4" ry="13" fill="none" stroke="#b196b0" stroke-width="2"/><ellipse cx="264" cy="230" rx="4" ry="13" fill="none" stroke="#b196b0" stroke-width="2"/></g><rect y="500" width="440" height="100" fill="url(#fade)"/><text x="24" y="568" fill="#b196b0" font-family="serif" font-size="11" letter-spacing="3">NOIR ATELIER / 127 · 03</text><text x="24" y="586" fill="#b9b3a3" font-family="sans-serif" font-size="9" letter-spacing="2">FIKTÍV DIGITÁLIS PORTRÉ · 21+</text></g></svg>