<svg xmlns="http://www.w3.org/2000/svg" width="440" height="600" viewBox="0 0 440 600"><title>Petra Nocturne — fiktív, 26 éves digitális karakter</title><view id="look0" viewBox="0 0 440 600"/><view id="look1" viewBox="440 0 440 600"/><view id="look2" viewBox="880 0 440 600"/><defs><linearGradient id="skin"><stop stop-color="#825242"/><stop offset="1" stop-color="#825242" stop-opacity=".85"/></linearGradient><radialGradient id="bg0" cx="75%" cy="25%" r="90%"><stop stop-color="#4c4239"/><stop offset="1" stop-color="#101210"/></radialGradient><linearGradient id="dress0"><stop stop-color="#5b2734"/><stop offset="1" stop-color="#101211"/></linearGradient><radialGradient id="bg1" cx="75%" cy="25%" r="90%"><stop stop-color="#283c3a"/><stop offset="1" stop-color="#101210"/></radialGradient><linearGradient id="dress1"><stop stop-color="#604b38"/><stop offset="1" stop-color="#101211"/></linearGradient><radialGradient id="bg2" cx="75%" cy="25%" r="90%"><stop stop-color="#3c2c39"/><stop offset="1" stop-color="#101210"/></radialGradient><linearGradient id="dress2"><stop stop-color="#aa9473"/><stop offset="1" stop-color="#101211"/></linearGradient><linearGradient id="fade" x2="0" y2="1"><stop stop-color="#0c0e0d" stop-opacity="0"/><stop offset="1" stop-color="#0c0e0d"/></linearGradient></defs><g transform="translate(0,0)"><rect width="440" height="600" fill="url(#bg0)"/><circle cx="370" cy="130" r="170" fill="#c6ad76" opacity=".05"/><path d="M35 0v600M395 0v600M0 80h440" stroke="#c6ad76" opacity=".15"/><path d="M50 600V338Q90 250 130 340V600M355 600V270" stroke="#c6ad76" fill="none" opacity=".15"/><g transform="rotate(-3.3000000000000003 230 194)"><path d="M145 384Q100 94 230 99Q360 94 318 384Z" fill="#74322b"/><path d="M145 139 Q120 284 155 304" fill="none" stroke="#74322b" stroke-width="3" opacity=".7"/><path d="M152 151.62206477211845 Q128 284 162 304" fill="none" stroke="#74322b" stroke-width="3" opacity=".7"/><path d="M159 152.63946140238522 Q136 284 169 304" fill="none" stroke="#74322b" stroke-width="3" opacity=".7"/><path d="M166 141.116800120898 Q144 284 176 304" fill="none" stroke="#74322b" stroke-width="3" opacity=".7"/><path d="M173 127.64796257038108 Q152 284 183 304" fill="none" stroke="#74322b" stroke-width="3" opacity=".7"/><path d="M180 124.61613588005292 Q160 284 190 304" fill="none" stroke="#74322b" stroke-width="3" opacity=".7"/><path d="M187 134.8087675270161 Q168 284 197 304" fill="none" stroke="#74322b" stroke-width="3" opacity=".7"/><path d="M194 148.85479898078182 Q176 284 204 304" fill="none" stroke="#74322b" stroke-width="3" opacity=".7"/><path d="M201 153.84037369935072 Q184 284 211 304" fill="none" stroke="#74322b" stroke-width="3" opacity=".7"/><path d="M208 145.18177727862636 Q192 284 218 304" fill="none" stroke="#74322b" stroke-width="3" opacity=".7"/><path d="M215 130.83968333665945 Q200 284 225 304" fill="none" stroke="#74322b" stroke-width="3" opacity=".7"/><path d="M222 124.00014690173944 Q208 284 232 304" fill="none" stroke="#74322b" stroke-width="3" opacity=".7"/><path d="M198 239V331L144 356Q230 429 318 356L262 331V239" fill="url(#skin)"/><path d="M193 276Q230 317 262 274V292Q230 322 193 302" fill="#523421" opacity=".15"/><ellipse cx="230" cy="194" rx="53" ry="84" fill="url(#skin)"/><ellipse cx="177" cy="209" rx="8" ry="19" fill="#825242"/><ellipse cx="283" cy="209" rx="8" ry="19" fill="#825242"/><path d="M165 200Q152 69 242 102Q330 98 296 229Q276 147 245 134Q200 152 165 200" fill="#74322b"/><path d="M193 187Q206 178 220 185M240 185Q253 178 267 187" fill="none" stroke="#74322b" stroke-width="3"/><path d="M193 199Q205 192 219 200M241 200Q254 192 267 199" fill="none" stroke="#362824" stroke-width="2"/><ellipse cx="206" cy="199" rx="4" ry="4" fill="#424941"/><ellipse cx="254" cy="199" rx="4" ry="4" fill="#424941"/><path d="M232 202L225 224Q231 228 238 223" fill="none" stroke="#9a6650" opacity=".6"/><path d="M213 242Q226 235 230 240Q238 236 248 242Q232 255 213 242" fill="#a66162"/><path d="M157 344Q100 353 84 600H373Q356 352 303 344L253 399L213 399Z" fill="url(#dress0)"/><path d="M156 352L188 457L226 403L269 457L306 352" stroke="#c6ad76" stroke-width="1" fill="none" opacity=".5"/><path d="M202 319Q230 371 259 320" fill="none" stroke="#c6ad76" stroke-width="2"/><circle cx="230" cy="348" r="4" fill="#c6ad76"/><ellipse cx="177" cy="236" rx="4" ry="13" fill="none" stroke="#c6ad76" stroke-width="2"/><ellipse cx="283" cy="236" rx="4" ry="13" fill="none" stroke="#c6ad76" stroke-width="2"/><path d="M178 149Q208 76 278 123Q234 159 178 149" fill="#74322b"/></g><rect y="500" width="440" height="100" fill="url(#fade)"/><text x="24" y="568" fill="#c6ad76" font-family="serif" font-size="11" letter-spacing="3">NOIR ATELIER / 209 · 01</text><text x="24" y="586" fill="#b9b3a3" font-family="sans-serif" font-size="9" letter-spacing="2">FIKTÍV DIGITÁLIS PORTRÉ · 21+</text></g><g transform="translate(440,0)"><rect width="440" height="600" fill="url(#bg1)"/><circle cx="95" cy="130" r="170" fill="#8eada5" opacity=".05"/><path d="M35 0v600M395 0v600M0 80h440" stroke="#8eada5" opacity=".15"/><path d="M50 600V338Q90 250 130 340V600M355 600V270" stroke="#8eada5" fill="none" opacity=".15"/><g transform="rotate(-3.3000000000000003 230 194)"><path d="M145 384Q100 94 230 99Q360 94 318 384Z" fill="#74322b"/><path d="M145 139 Q120 284 155 304" fill="none" stroke="#74322b" stroke-width="3" opacity=".7"/><path d="M152 151.62206477211845 Q128 284 162 304" fill="none" stroke="#74322b" stroke-width="3" opacity=".7"/><path d="M159 152.63946140238522 Q136 284 169 304" fill="none" stroke="#74322b" stroke-width="3" opacity=".7"/><path d="M166 141.116800120898 Q144 284 176 304" fill="none" stroke="#74322b" stroke-width="3" opacity=".7"/><path d="M173 127.64796257038108 Q152 284 183 304" fill="none" stroke="#74322b" stroke-width="3" opacity=".7"/><path d="M180 124.61613588005292 Q160 284 190 304" fill="none" stroke="#74322b" stroke-width="3" opacity=".7"/><path d="M187 134.8087675270161 Q168 284 197 304" fill="none" stroke="#74322b" stroke-width="3" opacity=".7"/><path d="M194 148.85479898078182 Q176 284 204 304" fill="none" stroke="#74322b" stroke-width="3" opacity=".7"/><path d="M201 153.84037369935072 Q184 284 211 304" fill="none" stroke="#74322b" stroke-width="3" opacity=".7"/><path d="M208 145.18177727862636 Q192 284 218 304" fill="none" stroke="#74322b" stroke-width="3" opacity=".7"/><path d="M215 130.83968333665945 Q200 284 225 304" fill="none" stroke="#74322b" stroke-width="3" opacity=".7"/><path d="M222 124.00014690173944 Q208 284 232 304" fill="none" stroke="#74322b" stroke-width="3" opacity=".7"/><path d="M198 239V331L144 356Q230 429 318 356L262 331V239" fill="url(#skin)"/><path d="M193 276Q230 317 262 274V292Q230 322 193 302" fill="#523421" opacity=".15"/><ellipse cx="230" cy="194" rx="53" ry="84" fill="url(#skin)"/><ellipse cx="177" cy="209" rx="8" ry="19" fill="#825242"/><ellipse cx="283" cy="209" rx="8" ry="19" fill="#825242"/><path d="M165 200Q152 69 242 102Q330 98 296 229Q276 147 245 134Q200 152 165 200" fill="#74322b"/><path d="M193 187Q206 178 220 185M240 185Q253 178 267 187" fill="none" stroke="#74322b" stroke-width="3"/><path d="M193 199Q205 192 219 200M241 200Q254 192 267 199" fill="none" stroke="#362824" stroke-width="2"/><ellipse cx="206" cy="199" rx="4" ry="4" fill="#424941"/><ellipse cx="254" cy="199" rx="4" ry="4" fill="#424941"/><path d="M232 202L225 224Q231 228 238 223" fill="none" stroke="#9a6650" opacity=".6"/><path d="M213 242Q226 235 230 240Q238 236 248 242Q232 255 213 242" fill="#a66162"/><path d="M157 344Q100 353 84 600H373Q356 352 303 344L253 399L213 399Z" fill="url(#dress1)"/><path d="M156 352L188 457L226 403L269 457L306 352" stroke="#8eada5" stroke-width="1" fill="none" opacity=".5"/><path d="M202 319Q230 371 259 320" fill="none" stroke="#8eada5" stroke-width="2"/><circle cx="230" cy="348" r="4" fill="#8eada5"/><ellipse cx="177" cy="236" rx="4" ry="13" fill="none" stroke="#8eada5" stroke-width="2"/><ellipse cx="283" cy="236" rx="4" ry="13" fill="none" stroke="#8eada5" stroke-width="2"/><path d="M178 149Q208 76 278 123Q234 159 178 149" fill="#74322b"/></g><rect y="500" width="440" height="100" fill="url(#fade)"/><text x="24" y="568" fill="#8eada5" font-family="serif" font-size="11" letter-spacing="3">NOIR ATELIER / 209 · 02</text><text x="24" y="586" fill="#b9b3a3" font-family="sans-serif" font-size="9" letter-spacing="2">FIKTÍV DIGITÁLIS PORTRÉ · 21+</text></g><g transform="translate(880,0)"><rect width="440" height="600" fill="url(#bg2)"/><circle cx="370" cy="130" r="170" fill="#b196b0" opacity=".05"/><path d="M35 0v600M395 0v600M0 80h440" stroke="#b196b0" opacity=".15"/><path d="M50 600V338Q90 250 130 340V600M355 600V270" stroke="#b196b0" fill="none" opacity=".15"/><g transform="rotate(-3.3000000000000003 230 194)"><path d="M145 384Q100 94 230 99Q360 94 318 384Z" fill="#74322b"/><path d="M145 139 Q120 284 155 304" fill="none" stroke="#74322b" stroke-width="3" opacity=".7"/><path d="M152 151.62206477211845 Q128 284 162 304" fill="none" stroke="#74322b" stroke-width="3" opacity=".7"/><path d="M159 152.63946140238522 Q136 284 169 304" fill="none" stroke="#74322b" stroke-width="3" opacity=".7"/><path d="M166 141.116800120898 Q144 284 176 304" fill="none" stroke="#74322b" stroke-width="3" opacity=".7"/><path d="M173 127.64796257038108 Q152 284 183 304" fill="none" stroke="#74322b" stroke-width="3" opacity=".7"/><path d="M180 124.61613588005292 Q160 284 190 304" fill="none" stroke="#74322b" stroke-width="3" opacity=".7"/><path d="M187 134.8087675270161 Q168 284 197 304" fill="none" stroke="#74322b" stroke-width="3" opacity=".7"/><path d="M194 148.85479898078182 Q176 284 204 304" fill="none" stroke="#74322b" stroke-width="3" opacity=".7"/><path d="M201 153.84037369935072 Q184 284 211 304" fill="none" stroke="#74322b" stroke-width="3" opacity=".7"/><path d="M208 145.18177727862636 Q192 284 218 304" fill="none" stroke="#74322b" stroke-width="3" opacity=".7"/><path d="M215 130.83968333665945 Q200 284 225 304" fill="none" stroke="#74322b" stroke-width="3" opacity=".7"/><path d="M222 124.00014690173944 Q208 284 232 304" fill="none" stroke="#74322b" stroke-width="3" opacity=".7"/><path d="M198 239V331L144 356Q230 429 318 356L262 331V239" fill="url(#skin)"/><path d="M193 276Q230 317 262 274V292Q230 322 193 302" fill="#523421" opacity=".15"/><ellipse cx="230" cy="194" rx="53" ry="84" fill="url(#skin)"/><ellipse cx="177" cy="209" rx="8" ry="19" fill="#825242"/><ellipse cx="283" cy="209" rx="8" ry="19" fill="#825242"/><path d="M165 200Q152 69 242 102Q330 98 296 229Q276 147 245 134Q200 152 165 200" fill="#74322b"/><path d="M193 187Q206 178 220 185M240 185Q253 178 267 187" fill="none" stroke="#74322b" stroke-width="3"/><path d="M193 199Q205 192 219 200M241 200Q254 192 267 199" fill="none" stroke="#362824" stroke-width="2"/><ellipse cx="206" cy="199" rx="4" ry="4" fill="#424941"/><ellipse cx="254" cy="199" rx="4" ry="4" fill="#424941"/><path d="M232 202L225 224Q231 228 238 223" fill="none" stroke="#9a6650" opacity=".6"/><path d="M213 242Q226 235 230 240Q238 236 248 242Q232 255 213 242" fill="#a66162"/><path d="M157 344Q100 353 84 600H373Q356 352 303 344L253 399L213 399Z" fill="url(#dress2)"/><path d="M156 352L188 457L226 403L269 457L306 352" stroke="#b196b0" stroke-width="1" fill="none" opacity=".5"/><path d="M202 319Q230 371 259 320" fill="none" stroke="#b196b0" stroke-width="2"/><circle cx="230" cy="348" r="4" fill="#b196b0"/><ellipse cx="177" cy="236" rx="4" ry="13" fill="none" stroke="#b196b0" stroke-width="2"/><ellipse cx="283" cy="236" rx="4" ry="13" fill="none" stroke="#b196b0" stroke-width="2"/><path d="M178 149Q208 76 278 123Q234 159 178 149" fill="#74322b"/></g><rect y="500" width="440" height="100" fill="url(#fade)"/><text x="24" y="568" fill="#b196b0" font-family="serif" font-size="11" letter-spacing="3">NOIR ATELIER / 209 · 03</text><text x="24" y="586" fill="#b9b3a3" font-family="sans-serif" font-size="9" letter-spacing="2">FIKTÍV DIGITÁLIS PORTRÉ · 21+</text></g></svg>