<svg xmlns="http://www.w3.org/2000/svg" width="440" height="600" viewBox="0 0 440 600"><title>Dóra Valmont — fiktív, 46 éves digitális karakter</title><view id="look0" viewBox="0 0 440 600"/><view id="look1" viewBox="440 0 440 600"/><view id="look2" viewBox="880 0 440 600"/><defs><linearGradient id="skin"><stop stop-color="#d4a079"/><stop offset="1" stop-color="#d4a079" stop-opacity=".85"/></linearGradient><radialGradient id="bg0" cx="75%" cy="25%" r="90%"><stop stop-color="#4c4239"/><stop offset="1" stop-color="#101210"/></radialGradient><linearGradient id="dress0"><stop stop-color="#253744"/><stop offset="1" stop-color="#101211"/></linearGradient><radialGradient id="bg1" cx="75%" cy="25%" r="90%"><stop stop-color="#283c3a"/><stop offset="1" stop-color="#101210"/></radialGradient><linearGradient id="dress1"><stop stop-color="#2e2b35"/><stop offset="1" stop-color="#101211"/></linearGradient><radialGradient id="bg2" cx="75%" cy="25%" r="90%"><stop stop-color="#3c2c39"/><stop offset="1" stop-color="#101210"/></radialGradient><linearGradient id="dress2"><stop stop-color="#28463d"/><stop offset="1" stop-color="#101211"/></linearGradient><linearGradient id="fade" x2="0" y2="1"><stop stop-color="#0c0e0d" stop-opacity="0"/><stop offset="1" stop-color="#0c0e0d"/></linearGradient></defs><g transform="translate(0,0)"><rect width="440" height="600" fill="url(#bg0)"/><circle cx="370" cy="130" r="170" fill="#c6ad76" opacity=".05"/><path d="M35 0v600M395 0v600M0 80h440" stroke="#c6ad76" opacity=".15"/><path d="M50 600V341Q90 250 130 340V600M355 600V270" stroke="#c6ad76" fill="none" opacity=".15"/><g transform="rotate(1.1 230 188)"><path d="M145 378Q100 88 230 93Q360 88 318 378Z" fill="#74322b"/><path d="M145 133 Q120 278 155 418" fill="none" stroke="#74322b" stroke-width="3" opacity=".7"/><path d="M152 145.62206477211845 Q128 278 162 418" fill="none" stroke="#74322b" stroke-width="3" opacity=".7"/><path d="M159 146.63946140238522 Q136 278 169 418" fill="none" stroke="#74322b" stroke-width="3" opacity=".7"/><path d="M166 135.116800120898 Q144 278 176 418" fill="none" stroke="#74322b" stroke-width="3" opacity=".7"/><path d="M173 121.64796257038108 Q152 278 183 418" fill="none" stroke="#74322b" stroke-width="3" opacity=".7"/><path d="M180 118.61613588005292 Q160 278 190 418" fill="none" stroke="#74322b" stroke-width="3" opacity=".7"/><path d="M187 128.8087675270161 Q168 278 197 418" fill="none" stroke="#74322b" stroke-width="3" opacity=".7"/><path d="M194 142.85479898078182 Q176 278 204 418" fill="none" stroke="#74322b" stroke-width="3" opacity=".7"/><path d="M201 147.84037369935072 Q184 278 211 418" fill="none" stroke="#74322b" stroke-width="3" opacity=".7"/><path d="M208 139.18177727862636 Q192 278 218 418" fill="none" stroke="#74322b" stroke-width="3" opacity=".7"/><path d="M215 124.83968333665945 Q200 278 225 418" fill="none" stroke="#74322b" stroke-width="3" opacity=".7"/><path d="M222 118.00014690173944 Q208 278 232 418" fill="none" stroke="#74322b" stroke-width="3" opacity=".7"/><path d="M198 233V325L144 350Q230 423 318 350L262 325V233" fill="url(#skin)"/><path d="M193 270Q230 311 262 268V286Q230 316 193 296" fill="#523421" opacity=".15"/><ellipse cx="230" cy="188" rx="56" ry="86" fill="url(#skin)"/><ellipse cx="174" cy="203" rx="8" ry="19" fill="#d4a079"/><ellipse cx="286" cy="203" rx="8" ry="19" fill="#d4a079"/><path d="M162 194Q149 63 242 96Q330 92 299 223Q279 141 245 128Q200 146 162 194" fill="#74322b"/><path d="M193 181Q206 172 220 179M240 179Q253 172 267 181" fill="none" stroke="#74322b" stroke-width="3"/><path d="M193 193Q205 186 219 194M241 194Q254 186 267 193" fill="none" stroke="#362824" stroke-width="2"/><ellipse cx="206" cy="193" rx="4" ry="4" fill="#322f2b"/><ellipse cx="254" cy="193" rx="4" ry="4" fill="#322f2b"/><path d="M232 196L225 218Q231 222 238 217" fill="none" stroke="#9a6650" opacity=".6"/><path d="M213 236Q226 229 230 234Q238 230 248 236Q232 249 213 236" fill="#a66162"/><path d="M157 338Q100 347 84 600H373Q356 346 303 338L253 393L213 393Z" fill="url(#dress0)"/><path d="M156 346L188 451L226 397L269 451L306 346" stroke="#c6ad76" stroke-width="1" fill="none" opacity=".5"/><path d="M202 313Q230 365 259 314" fill="none" stroke="#c6ad76" stroke-width="2"/><circle cx="230" cy="342" r="4" fill="#c6ad76"/><ellipse cx="174" cy="230" rx="4" ry="13" fill="none" stroke="#c6ad76" stroke-width="2"/><ellipse cx="286" cy="230" rx="4" ry="13" fill="none" stroke="#c6ad76" stroke-width="2"/></g><rect y="500" width="440" height="100" fill="url(#fade)"/><text x="24" y="568" fill="#c6ad76" font-family="serif" font-size="11" letter-spacing="3">NOIR ATELIER / 132 · 01</text><text x="24" y="586" fill="#b9b3a3" font-family="sans-serif" font-size="9" letter-spacing="2">FIKTÍV DIGITÁLIS PORTRÉ · 21+</text></g><g transform="translate(440,0)"><rect width="440" height="600" fill="url(#bg1)"/><circle cx="95" cy="130" r="170" fill="#8eada5" opacity=".05"/><path d="M35 0v600M395 0v600M0 80h440" stroke="#8eada5" opacity=".15"/><path d="M50 600V341Q90 250 130 340V600M355 600V270" stroke="#8eada5" fill="none" opacity=".15"/><g transform="rotate(1.1 230 188)"><path d="M145 378Q100 88 230 93Q360 88 318 378Z" fill="#74322b"/><path d="M145 133 Q120 278 155 418" fill="none" stroke="#74322b" stroke-width="3" opacity=".7"/><path d="M152 145.62206477211845 Q128 278 162 418" fill="none" stroke="#74322b" stroke-width="3" opacity=".7"/><path d="M159 146.63946140238522 Q136 278 169 418" fill="none" stroke="#74322b" stroke-width="3" opacity=".7"/><path d="M166 135.116800120898 Q144 278 176 418" fill="none" stroke="#74322b" stroke-width="3" opacity=".7"/><path d="M173 121.64796257038108 Q152 278 183 418" fill="none" stroke="#74322b" stroke-width="3" opacity=".7"/><path d="M180 118.61613588005292 Q160 278 190 418" fill="none" stroke="#74322b" stroke-width="3" opacity=".7"/><path d="M187 128.8087675270161 Q168 278 197 418" fill="none" stroke="#74322b" stroke-width="3" opacity=".7"/><path d="M194 142.85479898078182 Q176 278 204 418" fill="none" stroke="#74322b" stroke-width="3" opacity=".7"/><path d="M201 147.84037369935072 Q184 278 211 418" fill="none" stroke="#74322b" stroke-width="3" opacity=".7"/><path d="M208 139.18177727862636 Q192 278 218 418" fill="none" stroke="#74322b" stroke-width="3" opacity=".7"/><path d="M215 124.83968333665945 Q200 278 225 418" fill="none" stroke="#74322b" stroke-width="3" opacity=".7"/><path d="M222 118.00014690173944 Q208 278 232 418" fill="none" stroke="#74322b" stroke-width="3" opacity=".7"/><path d="M198 233V325L144 350Q230 423 318 350L262 325V233" fill="url(#skin)"/><path d="M193 270Q230 311 262 268V286Q230 316 193 296" fill="#523421" opacity=".15"/><ellipse cx="230" cy="188" rx="56" ry="86" fill="url(#skin)"/><ellipse cx="174" cy="203" rx="8" ry="19" fill="#d4a079"/><ellipse cx="286" cy="203" rx="8" ry="19" fill="#d4a079"/><path d="M162 194Q149 63 242 96Q330 92 299 223Q279 141 245 128Q200 146 162 194" fill="#74322b"/><path d="M193 181Q206 172 220 179M240 179Q253 172 267 181" fill="none" stroke="#74322b" stroke-width="3"/><path d="M193 193Q205 186 219 194M241 194Q254 186 267 193" fill="none" stroke="#362824" stroke-width="2"/><ellipse cx="206" cy="193" rx="4" ry="4" fill="#322f2b"/><ellipse cx="254" cy="193" rx="4" ry="4" fill="#322f2b"/><path d="M232 196L225 218Q231 222 238 217" fill="none" stroke="#9a6650" opacity=".6"/><path d="M213 236Q226 229 230 234Q238 230 248 236Q232 249 213 236" fill="#a66162"/><path d="M157 338Q100 347 84 600H373Q356 346 303 338L253 393L213 393Z" fill="url(#dress1)"/><path d="M156 346L188 451L226 397L269 451L306 346" stroke="#8eada5" stroke-width="1" fill="none" opacity=".5"/><path d="M202 313Q230 365 259 314" fill="none" stroke="#8eada5" stroke-width="2"/><circle cx="230" cy="342" r="4" fill="#8eada5"/><ellipse cx="174" cy="230" rx="4" ry="13" fill="none" stroke="#8eada5" stroke-width="2"/><ellipse cx="286" cy="230" rx="4" ry="13" fill="none" stroke="#8eada5" stroke-width="2"/></g><rect y="500" width="440" height="100" fill="url(#fade)"/><text x="24" y="568" fill="#8eada5" font-family="serif" font-size="11" letter-spacing="3">NOIR ATELIER / 132 · 02</text><text x="24" y="586" fill="#b9b3a3" font-family="sans-serif" font-size="9" letter-spacing="2">FIKTÍV DIGITÁLIS PORTRÉ · 21+</text></g><g transform="translate(880,0)"><rect width="440" height="600" fill="url(#bg2)"/><circle cx="370" cy="130" r="170" fill="#b196b0" opacity=".05"/><path d="M35 0v600M395 0v600M0 80h440" stroke="#b196b0" opacity=".15"/><path d="M50 600V341Q90 250 130 340V600M355 600V270" stroke="#b196b0" fill="none" opacity=".15"/><g transform="rotate(1.1 230 188)"><path d="M145 378Q100 88 230 93Q360 88 318 378Z" fill="#74322b"/><path d="M145 133 Q120 278 155 418" fill="none" stroke="#74322b" stroke-width="3" opacity=".7"/><path d="M152 145.62206477211845 Q128 278 162 418" fill="none" stroke="#74322b" stroke-width="3" opacity=".7"/><path d="M159 146.63946140238522 Q136 278 169 418" fill="none" stroke="#74322b" stroke-width="3" opacity=".7"/><path d="M166 135.116800120898 Q144 278 176 418" fill="none" stroke="#74322b" stroke-width="3" opacity=".7"/><path d="M173 121.64796257038108 Q152 278 183 418" fill="none" stroke="#74322b" stroke-width="3" opacity=".7"/><path d="M180 118.61613588005292 Q160 278 190 418" fill="none" stroke="#74322b" stroke-width="3" opacity=".7"/><path d="M187 128.8087675270161 Q168 278 197 418" fill="none" stroke="#74322b" stroke-width="3" opacity=".7"/><path d="M194 142.85479898078182 Q176 278 204 418" fill="none" stroke="#74322b" stroke-width="3" opacity=".7"/><path d="M201 147.84037369935072 Q184 278 211 418" fill="none" stroke="#74322b" stroke-width="3" opacity=".7"/><path d="M208 139.18177727862636 Q192 278 218 418" fill="none" stroke="#74322b" stroke-width="3" opacity=".7"/><path d="M215 124.83968333665945 Q200 278 225 418" fill="none" stroke="#74322b" stroke-width="3" opacity=".7"/><path d="M222 118.00014690173944 Q208 278 232 418" fill="none" stroke="#74322b" stroke-width="3" opacity=".7"/><path d="M198 233V325L144 350Q230 423 318 350L262 325V233" fill="url(#skin)"/><path d="M193 270Q230 311 262 268V286Q230 316 193 296" fill="#523421" opacity=".15"/><ellipse cx="230" cy="188" rx="56" ry="86" fill="url(#skin)"/><ellipse cx="174" cy="203" rx="8" ry="19" fill="#d4a079"/><ellipse cx="286" cy="203" rx="8" ry="19" fill="#d4a079"/><path d="M162 194Q149 63 242 96Q330 92 299 223Q279 141 245 128Q200 146 162 194" fill="#74322b"/><path d="M193 181Q206 172 220 179M240 179Q253 172 267 181" fill="none" stroke="#74322b" stroke-width="3"/><path d="M193 193Q205 186 219 194M241 194Q254 186 267 193" fill="none" stroke="#362824" stroke-width="2"/><ellipse cx="206" cy="193" rx="4" ry="4" fill="#322f2b"/><ellipse cx="254" cy="193" rx="4" ry="4" fill="#322f2b"/><path d="M232 196L225 218Q231 222 238 217" fill="none" stroke="#9a6650" opacity=".6"/><path d="M213 236Q226 229 230 234Q238 230 248 236Q232 249 213 236" fill="#a66162"/><path d="M157 338Q100 347 84 600H373Q356 346 303 338L253 393L213 393Z" fill="url(#dress2)"/><path d="M156 346L188 451L226 397L269 451L306 346" stroke="#b196b0" stroke-width="1" fill="none" opacity=".5"/><path d="M202 313Q230 365 259 314" fill="none" stroke="#b196b0" stroke-width="2"/><circle cx="230" cy="342" r="4" fill="#b196b0"/><ellipse cx="174" cy="230" rx="4" ry="13" fill="none" stroke="#b196b0" stroke-width="2"/><ellipse cx="286" cy="230" rx="4" ry="13" fill="none" stroke="#b196b0" stroke-width="2"/></g><rect y="500" width="440" height="100" fill="url(#fade)"/><text x="24" y="568" fill="#b196b0" font-family="serif" font-size="11" letter-spacing="3">NOIR ATELIER / 132 · 03</text><text x="24" y="586" fill="#b9b3a3" font-family="sans-serif" font-size="9" letter-spacing="2">FIKTÍV DIGITÁLIS PORTRÉ · 21+</text></g></svg>