<svg xmlns="http://www.w3.org/2000/svg" width="440" height="600" viewBox="0 0 440 600"><title>Szonja Valmont — fiktív, 45 éves digitális karakter</title><view id="look0" viewBox="0 0 440 600"/><view id="look1" viewBox="440 0 440 600"/><view id="look2" viewBox="880 0 440 600"/><defs><linearGradient id="skin"><stop stop-color="#f2d9c5"/><stop offset="1" stop-color="#f2d9c5" stop-opacity=".85"/></linearGradient><radialGradient id="bg0" cx="75%" cy="25%" r="90%"><stop stop-color="#4c4239"/><stop offset="1" stop-color="#101210"/></radialGradient><linearGradient id="dress0"><stop stop-color="#5e405e"/><stop offset="1" stop-color="#101211"/></linearGradient><radialGradient id="bg1" cx="75%" cy="25%" r="90%"><stop stop-color="#283c3a"/><stop offset="1" stop-color="#101210"/></radialGradient><linearGradient id="dress1"><stop stop-color="#181a1b"/><stop offset="1" stop-color="#101211"/></linearGradient><radialGradient id="bg2" cx="75%" cy="25%" r="90%"><stop stop-color="#3c2c39"/><stop offset="1" stop-color="#101210"/></radialGradient><linearGradient id="dress2"><stop stop-color="#595451"/><stop offset="1" stop-color="#101211"/></linearGradient><linearGradient id="fade" x2="0" y2="1"><stop stop-color="#0c0e0d" stop-opacity="0"/><stop offset="1" stop-color="#0c0e0d"/></linearGradient></defs><g transform="translate(0,0)"><rect width="440" height="600" fill="url(#bg0)"/><circle cx="370" cy="130" r="170" fill="#c6ad76" opacity=".05"/><path d="M35 0v600M395 0v600M0 80h440" stroke="#c6ad76" opacity=".15"/><path d="M50 600V333Q90 250 130 340V600M355 600V270" stroke="#c6ad76" fill="none" opacity=".15"/><g transform="rotate(2.2 225 194)"><path d="M140 384Q95 94 225 99Q355 94 313 384Z" fill="#dfc28c"/><path d="M140 139 Q115 284 150 424" fill="none" stroke="#dfc28c" stroke-width="3" opacity=".7"/><path d="M147 151.62206477211845 Q123 284 157 424" fill="none" stroke="#dfc28c" stroke-width="3" opacity=".7"/><path d="M154 152.63946140238522 Q131 284 164 424" fill="none" stroke="#dfc28c" stroke-width="3" opacity=".7"/><path d="M161 141.116800120898 Q139 284 171 424" fill="none" stroke="#dfc28c" stroke-width="3" opacity=".7"/><path d="M168 127.64796257038108 Q147 284 178 424" fill="none" stroke="#dfc28c" stroke-width="3" opacity=".7"/><path d="M175 124.61613588005292 Q155 284 185 424" fill="none" stroke="#dfc28c" stroke-width="3" opacity=".7"/><path d="M182 134.8087675270161 Q163 284 192 424" fill="none" stroke="#dfc28c" stroke-width="3" opacity=".7"/><path d="M189 148.85479898078182 Q171 284 199 424" fill="none" stroke="#dfc28c" stroke-width="3" opacity=".7"/><path d="M196 153.84037369935072 Q179 284 206 424" fill="none" stroke="#dfc28c" stroke-width="3" opacity=".7"/><path d="M203 145.18177727862636 Q187 284 213 424" fill="none" stroke="#dfc28c" stroke-width="3" opacity=".7"/><path d="M210 130.83968333665945 Q195 284 220 424" fill="none" stroke="#dfc28c" stroke-width="3" opacity=".7"/><path d="M217 124.00014690173944 Q203 284 227 424" fill="none" stroke="#dfc28c" stroke-width="3" opacity=".7"/><path d="M193 239V331L139 356Q225 429 313 356L257 331V239" fill="url(#skin)"/><path d="M188 276Q225 317 257 274V292Q225 322 188 302" fill="#523421" opacity=".15"/><ellipse cx="225" cy="194" rx="56" ry="82" fill="url(#skin)"/><ellipse cx="169" cy="209" rx="8" ry="19" fill="#f2d9c5"/><ellipse cx="281" cy="209" rx="8" ry="19" fill="#f2d9c5"/><path d="M157 200Q144 69 237 102Q325 98 294 229Q274 147 240 134Q195 152 157 200" fill="#dfc28c"/><path d="M188 187Q201 178 215 185M235 185Q248 178 262 187" fill="none" stroke="#dfc28c" stroke-width="3"/><path d="M188 199Q200 192 214 200M236 200Q249 192 262 199" fill="none" stroke="#362824" stroke-width="2"/><ellipse cx="201" cy="199" rx="4" ry="4" fill="#322f2b"/><ellipse cx="249" cy="199" rx="4" ry="4" fill="#322f2b"/><path d="M227 202L220 224Q226 228 233 223" fill="none" stroke="#9a6650" opacity=".6"/><path d="M208 242Q221 235 225 240Q233 236 243 242Q227 255 208 242" fill="#8e3e4f"/><path d="M152 344Q95 353 79 600H368Q351 352 298 344L248 399L208 399Z" fill="url(#dress0)"/><path d="M151 352L183 457L221 403L264 457L301 352" stroke="#c6ad76" stroke-width="1" fill="none" opacity=".5"/><path d="M197 319Q225 371 254 320" fill="none" stroke="#c6ad76" stroke-width="2"/><circle cx="225" cy="348" r="4" fill="#c6ad76"/><ellipse cx="169" cy="236" rx="4" ry="13" fill="none" stroke="#c6ad76" stroke-width="2"/><ellipse cx="281" cy="236" rx="4" ry="13" fill="none" stroke="#c6ad76" stroke-width="2"/></g><rect y="500" width="440" height="100" fill="url(#fade)"/><text x="24" y="568" fill="#c6ad76" font-family="serif" font-size="11" letter-spacing="3">NOIR ATELIER / 124 · 01</text><text x="24" y="586" fill="#b9b3a3" font-family="sans-serif" font-size="9" letter-spacing="2">FIKTÍV DIGITÁLIS PORTRÉ · 21+</text></g><g transform="translate(440,0)"><rect width="440" height="600" fill="url(#bg1)"/><circle cx="95" cy="130" r="170" fill="#8eada5" opacity=".05"/><path d="M35 0v600M395 0v600M0 80h440" stroke="#8eada5" opacity=".15"/><path d="M50 600V333Q90 250 130 340V600M355 600V270" stroke="#8eada5" fill="none" opacity=".15"/><g transform="rotate(2.2 225 194)"><path d="M140 384Q95 94 225 99Q355 94 313 384Z" fill="#dfc28c"/><path d="M140 139 Q115 284 150 424" fill="none" stroke="#dfc28c" stroke-width="3" opacity=".7"/><path d="M147 151.62206477211845 Q123 284 157 424" fill="none" stroke="#dfc28c" stroke-width="3" opacity=".7"/><path d="M154 152.63946140238522 Q131 284 164 424" fill="none" stroke="#dfc28c" stroke-width="3" opacity=".7"/><path d="M161 141.116800120898 Q139 284 171 424" fill="none" stroke="#dfc28c" stroke-width="3" opacity=".7"/><path d="M168 127.64796257038108 Q147 284 178 424" fill="none" stroke="#dfc28c" stroke-width="3" opacity=".7"/><path d="M175 124.61613588005292 Q155 284 185 424" fill="none" stroke="#dfc28c" stroke-width="3" opacity=".7"/><path d="M182 134.8087675270161 Q163 284 192 424" fill="none" stroke="#dfc28c" stroke-width="3" opacity=".7"/><path d="M189 148.85479898078182 Q171 284 199 424" fill="none" stroke="#dfc28c" stroke-width="3" opacity=".7"/><path d="M196 153.84037369935072 Q179 284 206 424" fill="none" stroke="#dfc28c" stroke-width="3" opacity=".7"/><path d="M203 145.18177727862636 Q187 284 213 424" fill="none" stroke="#dfc28c" stroke-width="3" opacity=".7"/><path d="M210 130.83968333665945 Q195 284 220 424" fill="none" stroke="#dfc28c" stroke-width="3" opacity=".7"/><path d="M217 124.00014690173944 Q203 284 227 424" fill="none" stroke="#dfc28c" stroke-width="3" opacity=".7"/><path d="M193 239V331L139 356Q225 429 313 356L257 331V239" fill="url(#skin)"/><path d="M188 276Q225 317 257 274V292Q225 322 188 302" fill="#523421" opacity=".15"/><ellipse cx="225" cy="194" rx="56" ry="82" fill="url(#skin)"/><ellipse cx="169" cy="209" rx="8" ry="19" fill="#f2d9c5"/><ellipse cx="281" cy="209" rx="8" ry="19" fill="#f2d9c5"/><path d="M157 200Q144 69 237 102Q325 98 294 229Q274 147 240 134Q195 152 157 200" fill="#dfc28c"/><path d="M188 187Q201 178 215 185M235 185Q248 178 262 187" fill="none" stroke="#dfc28c" stroke-width="3"/><path d="M188 199Q200 192 214 200M236 200Q249 192 262 199" fill="none" stroke="#362824" stroke-width="2"/><ellipse cx="201" cy="199" rx="4" ry="4" fill="#322f2b"/><ellipse cx="249" cy="199" rx="4" ry="4" fill="#322f2b"/><path d="M227 202L220 224Q226 228 233 223" fill="none" stroke="#9a6650" opacity=".6"/><path d="M208 242Q221 235 225 240Q233 236 243 242Q227 255 208 242" fill="#8e3e4f"/><path d="M152 344Q95 353 79 600H368Q351 352 298 344L248 399L208 399Z" fill="url(#dress1)"/><path d="M151 352L183 457L221 403L264 457L301 352" stroke="#8eada5" stroke-width="1" fill="none" opacity=".5"/><path d="M197 319Q225 371 254 320" fill="none" stroke="#8eada5" stroke-width="2"/><circle cx="225" cy="348" r="4" fill="#8eada5"/><ellipse cx="169" cy="236" rx="4" ry="13" fill="none" stroke="#8eada5" stroke-width="2"/><ellipse cx="281" cy="236" rx="4" ry="13" fill="none" stroke="#8eada5" stroke-width="2"/></g><rect y="500" width="440" height="100" fill="url(#fade)"/><text x="24" y="568" fill="#8eada5" font-family="serif" font-size="11" letter-spacing="3">NOIR ATELIER / 124 · 02</text><text x="24" y="586" fill="#b9b3a3" font-family="sans-serif" font-size="9" letter-spacing="2">FIKTÍV DIGITÁLIS PORTRÉ · 21+</text></g><g transform="translate(880,0)"><rect width="440" height="600" fill="url(#bg2)"/><circle cx="370" cy="130" r="170" fill="#b196b0" opacity=".05"/><path d="M35 0v600M395 0v600M0 80h440" stroke="#b196b0" opacity=".15"/><path d="M50 600V333Q90 250 130 340V600M355 600V270" stroke="#b196b0" fill="none" opacity=".15"/><g transform="rotate(2.2 225 194)"><path d="M140 384Q95 94 225 99Q355 94 313 384Z" fill="#dfc28c"/><path d="M140 139 Q115 284 150 424" fill="none" stroke="#dfc28c" stroke-width="3" opacity=".7"/><path d="M147 151.62206477211845 Q123 284 157 424" fill="none" stroke="#dfc28c" stroke-width="3" opacity=".7"/><path d="M154 152.63946140238522 Q131 284 164 424" fill="none" stroke="#dfc28c" stroke-width="3" opacity=".7"/><path d="M161 141.116800120898 Q139 284 171 424" fill="none" stroke="#dfc28c" stroke-width="3" opacity=".7"/><path d="M168 127.64796257038108 Q147 284 178 424" fill="none" stroke="#dfc28c" stroke-width="3" opacity=".7"/><path d="M175 124.61613588005292 Q155 284 185 424" fill="none" stroke="#dfc28c" stroke-width="3" opacity=".7"/><path d="M182 134.8087675270161 Q163 284 192 424" fill="none" stroke="#dfc28c" stroke-width="3" opacity=".7"/><path d="M189 148.85479898078182 Q171 284 199 424" fill="none" stroke="#dfc28c" stroke-width="3" opacity=".7"/><path d="M196 153.84037369935072 Q179 284 206 424" fill="none" stroke="#dfc28c" stroke-width="3" opacity=".7"/><path d="M203 145.18177727862636 Q187 284 213 424" fill="none" stroke="#dfc28c" stroke-width="3" opacity=".7"/><path d="M210 130.83968333665945 Q195 284 220 424" fill="none" stroke="#dfc28c" stroke-width="3" opacity=".7"/><path d="M217 124.00014690173944 Q203 284 227 424" fill="none" stroke="#dfc28c" stroke-width="3" opacity=".7"/><path d="M193 239V331L139 356Q225 429 313 356L257 331V239" fill="url(#skin)"/><path d="M188 276Q225 317 257 274V292Q225 322 188 302" fill="#523421" opacity=".15"/><ellipse cx="225" cy="194" rx="56" ry="82" fill="url(#skin)"/><ellipse cx="169" cy="209" rx="8" ry="19" fill="#f2d9c5"/><ellipse cx="281" cy="209" rx="8" ry="19" fill="#f2d9c5"/><path d="M157 200Q144 69 237 102Q325 98 294 229Q274 147 240 134Q195 152 157 200" fill="#dfc28c"/><path d="M188 187Q201 178 215 185M235 185Q248 178 262 187" fill="none" stroke="#dfc28c" stroke-width="3"/><path d="M188 199Q200 192 214 200M236 200Q249 192 262 199" fill="none" stroke="#362824" stroke-width="2"/><ellipse cx="201" cy="199" rx="4" ry="4" fill="#322f2b"/><ellipse cx="249" cy="199" rx="4" ry="4" fill="#322f2b"/><path d="M227 202L220 224Q226 228 233 223" fill="none" stroke="#9a6650" opacity=".6"/><path d="M208 242Q221 235 225 240Q233 236 243 242Q227 255 208 242" fill="#8e3e4f"/><path d="M152 344Q95 353 79 600H368Q351 352 298 344L248 399L208 399Z" fill="url(#dress2)"/><path d="M151 352L183 457L221 403L264 457L301 352" stroke="#b196b0" stroke-width="1" fill="none" opacity=".5"/><path d="M197 319Q225 371 254 320" fill="none" stroke="#b196b0" stroke-width="2"/><circle cx="225" cy="348" r="4" fill="#b196b0"/><ellipse cx="169" cy="236" rx="4" ry="13" fill="none" stroke="#b196b0" stroke-width="2"/><ellipse cx="281" cy="236" rx="4" ry="13" fill="none" stroke="#b196b0" stroke-width="2"/></g><rect y="500" width="440" height="100" fill="url(#fade)"/><text x="24" y="568" fill="#b196b0" font-family="serif" font-size="11" letter-spacing="3">NOIR ATELIER / 124 · 03</text><text x="24" y="586" fill="#b9b3a3" font-family="sans-serif" font-size="9" letter-spacing="2">FIKTÍV DIGITÁLIS PORTRÉ · 21+</text></g></svg>