<svg xmlns="http://www.w3.org/2000/svg" width="440" height="600" viewBox="0 0 440 600"><title>Bella Laurent — fiktív, 38 éves digitális karakter</title><view id="look0" viewBox="0 0 440 600"/><view id="look1" viewBox="440 0 440 600"/><view id="look2" viewBox="880 0 440 600"/><defs><linearGradient id="skin"><stop stop-color="#ac7659"/><stop offset="1" stop-color="#ac7659" stop-opacity=".85"/></linearGradient><radialGradient id="bg0" cx="75%" cy="25%" r="90%"><stop stop-color="#4c4239"/><stop offset="1" stop-color="#101210"/></radialGradient><linearGradient id="dress0"><stop stop-color="#2e2b35"/><stop offset="1" stop-color="#101211"/></linearGradient><radialGradient id="bg1" cx="75%" cy="25%" r="90%"><stop stop-color="#283c3a"/><stop offset="1" stop-color="#101210"/></radialGradient><linearGradient id="dress1"><stop stop-color="#28463d"/><stop offset="1" stop-color="#101211"/></linearGradient><radialGradient id="bg2" cx="75%" cy="25%" r="90%"><stop stop-color="#3c2c39"/><stop offset="1" stop-color="#101210"/></radialGradient><linearGradient id="dress2"><stop stop-color="#253744"/><stop offset="1" stop-color="#101211"/></linearGradient><linearGradient id="fade" x2="0" y2="1"><stop stop-color="#0c0e0d" stop-opacity="0"/><stop offset="1" stop-color="#0c0e0d"/></linearGradient></defs><g transform="translate(0,0)"><rect width="440" height="600" fill="url(#bg0)"/><circle cx="370" cy="130" r="170" fill="#c6ad76" opacity=".05"/><path d="M35 0v600M395 0v600M0 80h440" stroke="#c6ad76" opacity=".15"/><path d="M50 600V352Q90 250 130 340V600M355 600V270" stroke="#c6ad76" fill="none" opacity=".15"/><g transform="rotate(4.4 235 191)"><path d="M150 381Q105 91 235 96Q365 91 323 381Z" fill="#4a241f"/><path d="M150 136 Q125 281 160 421" fill="none" stroke="#4a241f" stroke-width="3" opacity=".7"/><path d="M157 148.62206477211845 Q133 281 167 421" fill="none" stroke="#4a241f" stroke-width="3" opacity=".7"/><path d="M164 149.63946140238522 Q141 281 174 421" fill="none" stroke="#4a241f" stroke-width="3" opacity=".7"/><path d="M171 138.116800120898 Q149 281 181 421" fill="none" stroke="#4a241f" stroke-width="3" opacity=".7"/><path d="M178 124.64796257038108 Q157 281 188 421" fill="none" stroke="#4a241f" stroke-width="3" opacity=".7"/><path d="M185 121.61613588005292 Q165 281 195 421" fill="none" stroke="#4a241f" stroke-width="3" opacity=".7"/><path d="M192 131.8087675270161 Q173 281 202 421" fill="none" stroke="#4a241f" stroke-width="3" opacity=".7"/><path d="M199 145.85479898078182 Q181 281 209 421" fill="none" stroke="#4a241f" stroke-width="3" opacity=".7"/><path d="M206 150.84037369935072 Q189 281 216 421" fill="none" stroke="#4a241f" stroke-width="3" opacity=".7"/><path d="M213 142.18177727862636 Q197 281 223 421" fill="none" stroke="#4a241f" stroke-width="3" opacity=".7"/><path d="M220 127.83968333665945 Q205 281 230 421" fill="none" stroke="#4a241f" stroke-width="3" opacity=".7"/><path d="M227 121.00014690173944 Q213 281 237 421" fill="none" stroke="#4a241f" stroke-width="3" opacity=".7"/><path d="M203 236V328L149 353Q235 426 323 353L267 328V236" fill="url(#skin)"/><path d="M198 273Q235 314 267 271V289Q235 319 198 299" fill="#523421" opacity=".15"/><ellipse cx="235" cy="191" rx="59" ry="80" fill="url(#skin)"/><ellipse cx="176" cy="206" rx="8" ry="19" fill="#ac7659"/><ellipse cx="294" cy="206" rx="8" ry="19" fill="#ac7659"/><path d="M164 197Q151 66 247 99Q335 95 307 226Q287 144 250 131Q205 149 164 197" fill="#4a241f"/><path d="M198 184Q211 175 225 182M245 182Q258 175 272 184" fill="none" stroke="#4a241f" stroke-width="3"/><path d="M198 196Q210 189 224 197M246 197Q259 189 272 196" fill="none" stroke="#362824" stroke-width="2"/><ellipse cx="211" cy="196" rx="4" ry="4" fill="#324e52"/><ellipse cx="259" cy="196" rx="4" ry="4" fill="#324e52"/><path d="M237 199L230 221Q236 225 243 220" fill="none" stroke="#9a6650" opacity=".6"/><path d="M218 239Q231 232 235 237Q243 233 253 239Q237 252 218 239" fill="#a66162"/><path d="M162 341Q105 350 89 600H378Q361 349 308 341L258 396L218 396Z" fill="url(#dress0)"/><path d="M161 349L193 454L231 400L274 454L311 349" stroke="#c6ad76" stroke-width="1" fill="none" opacity=".5"/><path d="M207 316Q235 368 264 317" fill="none" stroke="#c6ad76" stroke-width="2"/><circle cx="235" cy="345" r="4" fill="#c6ad76"/><ellipse cx="176" cy="233" rx="4" ry="13" fill="none" stroke="#c6ad76" stroke-width="2"/><ellipse cx="294" cy="233" rx="4" ry="13" fill="none" stroke="#c6ad76" stroke-width="2"/></g><rect y="500" width="440" height="100" fill="url(#fade)"/><text x="24" y="568" fill="#c6ad76" font-family="serif" font-size="11" letter-spacing="3">NOIR ATELIER / 063 · 01</text><text x="24" y="586" fill="#b9b3a3" font-family="sans-serif" font-size="9" letter-spacing="2">FIKTÍV DIGITÁLIS PORTRÉ · 21+</text></g><g transform="translate(440,0)"><rect width="440" height="600" fill="url(#bg1)"/><circle cx="95" cy="130" r="170" fill="#8eada5" opacity=".05"/><path d="M35 0v600M395 0v600M0 80h440" stroke="#8eada5" opacity=".15"/><path d="M50 600V352Q90 250 130 340V600M355 600V270" stroke="#8eada5" fill="none" opacity=".15"/><g transform="rotate(4.4 235 191)"><path d="M150 381Q105 91 235 96Q365 91 323 381Z" fill="#4a241f"/><path d="M150 136 Q125 281 160 421" fill="none" stroke="#4a241f" stroke-width="3" opacity=".7"/><path d="M157 148.62206477211845 Q133 281 167 421" fill="none" stroke="#4a241f" stroke-width="3" opacity=".7"/><path d="M164 149.63946140238522 Q141 281 174 421" fill="none" stroke="#4a241f" stroke-width="3" opacity=".7"/><path d="M171 138.116800120898 Q149 281 181 421" fill="none" stroke="#4a241f" stroke-width="3" opacity=".7"/><path d="M178 124.64796257038108 Q157 281 188 421" fill="none" stroke="#4a241f" stroke-width="3" opacity=".7"/><path d="M185 121.61613588005292 Q165 281 195 421" fill="none" stroke="#4a241f" stroke-width="3" opacity=".7"/><path d="M192 131.8087675270161 Q173 281 202 421" fill="none" stroke="#4a241f" stroke-width="3" opacity=".7"/><path d="M199 145.85479898078182 Q181 281 209 421" fill="none" stroke="#4a241f" stroke-width="3" opacity=".7"/><path d="M206 150.84037369935072 Q189 281 216 421" fill="none" stroke="#4a241f" stroke-width="3" opacity=".7"/><path d="M213 142.18177727862636 Q197 281 223 421" fill="none" stroke="#4a241f" stroke-width="3" opacity=".7"/><path d="M220 127.83968333665945 Q205 281 230 421" fill="none" stroke="#4a241f" stroke-width="3" opacity=".7"/><path d="M227 121.00014690173944 Q213 281 237 421" fill="none" stroke="#4a241f" stroke-width="3" opacity=".7"/><path d="M203 236V328L149 353Q235 426 323 353L267 328V236" fill="url(#skin)"/><path d="M198 273Q235 314 267 271V289Q235 319 198 299" fill="#523421" opacity=".15"/><ellipse cx="235" cy="191" rx="59" ry="80" fill="url(#skin)"/><ellipse cx="176" cy="206" rx="8" ry="19" fill="#ac7659"/><ellipse cx="294" cy="206" rx="8" ry="19" fill="#ac7659"/><path d="M164 197Q151 66 247 99Q335 95 307 226Q287 144 250 131Q205 149 164 197" fill="#4a241f"/><path d="M198 184Q211 175 225 182M245 182Q258 175 272 184" fill="none" stroke="#4a241f" stroke-width="3"/><path d="M198 196Q210 189 224 197M246 197Q259 189 272 196" fill="none" stroke="#362824" stroke-width="2"/><ellipse cx="211" cy="196" rx="4" ry="4" fill="#324e52"/><ellipse cx="259" cy="196" rx="4" ry="4" fill="#324e52"/><path d="M237 199L230 221Q236 225 243 220" fill="none" stroke="#9a6650" opacity=".6"/><path d="M218 239Q231 232 235 237Q243 233 253 239Q237 252 218 239" fill="#a66162"/><path d="M162 341Q105 350 89 600H378Q361 349 308 341L258 396L218 396Z" fill="url(#dress1)"/><path d="M161 349L193 454L231 400L274 454L311 349" stroke="#8eada5" stroke-width="1" fill="none" opacity=".5"/><path d="M207 316Q235 368 264 317" fill="none" stroke="#8eada5" stroke-width="2"/><circle cx="235" cy="345" r="4" fill="#8eada5"/><ellipse cx="176" cy="233" rx="4" ry="13" fill="none" stroke="#8eada5" stroke-width="2"/><ellipse cx="294" cy="233" rx="4" ry="13" fill="none" stroke="#8eada5" stroke-width="2"/></g><rect y="500" width="440" height="100" fill="url(#fade)"/><text x="24" y="568" fill="#8eada5" font-family="serif" font-size="11" letter-spacing="3">NOIR ATELIER / 063 · 02</text><text x="24" y="586" fill="#b9b3a3" font-family="sans-serif" font-size="9" letter-spacing="2">FIKTÍV DIGITÁLIS PORTRÉ · 21+</text></g><g transform="translate(880,0)"><rect width="440" height="600" fill="url(#bg2)"/><circle cx="370" cy="130" r="170" fill="#b196b0" opacity=".05"/><path d="M35 0v600M395 0v600M0 80h440" stroke="#b196b0" opacity=".15"/><path d="M50 600V352Q90 250 130 340V600M355 600V270" stroke="#b196b0" fill="none" opacity=".15"/><g transform="rotate(4.4 235 191)"><path d="M150 381Q105 91 235 96Q365 91 323 381Z" fill="#4a241f"/><path d="M150 136 Q125 281 160 421" fill="none" stroke="#4a241f" stroke-width="3" opacity=".7"/><path d="M157 148.62206477211845 Q133 281 167 421" fill="none" stroke="#4a241f" stroke-width="3" opacity=".7"/><path d="M164 149.63946140238522 Q141 281 174 421" fill="none" stroke="#4a241f" stroke-width="3" opacity=".7"/><path d="M171 138.116800120898 Q149 281 181 421" fill="none" stroke="#4a241f" stroke-width="3" opacity=".7"/><path d="M178 124.64796257038108 Q157 281 188 421" fill="none" stroke="#4a241f" stroke-width="3" opacity=".7"/><path d="M185 121.61613588005292 Q165 281 195 421" fill="none" stroke="#4a241f" stroke-width="3" opacity=".7"/><path d="M192 131.8087675270161 Q173 281 202 421" fill="none" stroke="#4a241f" stroke-width="3" opacity=".7"/><path d="M199 145.85479898078182 Q181 281 209 421" fill="none" stroke="#4a241f" stroke-width="3" opacity=".7"/><path d="M206 150.84037369935072 Q189 281 216 421" fill="none" stroke="#4a241f" stroke-width="3" opacity=".7"/><path d="M213 142.18177727862636 Q197 281 223 421" fill="none" stroke="#4a241f" stroke-width="3" opacity=".7"/><path d="M220 127.83968333665945 Q205 281 230 421" fill="none" stroke="#4a241f" stroke-width="3" opacity=".7"/><path d="M227 121.00014690173944 Q213 281 237 421" fill="none" stroke="#4a241f" stroke-width="3" opacity=".7"/><path d="M203 236V328L149 353Q235 426 323 353L267 328V236" fill="url(#skin)"/><path d="M198 273Q235 314 267 271V289Q235 319 198 299" fill="#523421" opacity=".15"/><ellipse cx="235" cy="191" rx="59" ry="80" fill="url(#skin)"/><ellipse cx="176" cy="206" rx="8" ry="19" fill="#ac7659"/><ellipse cx="294" cy="206" rx="8" ry="19" fill="#ac7659"/><path d="M164 197Q151 66 247 99Q335 95 307 226Q287 144 250 131Q205 149 164 197" fill="#4a241f"/><path d="M198 184Q211 175 225 182M245 182Q258 175 272 184" fill="none" stroke="#4a241f" stroke-width="3"/><path d="M198 196Q210 189 224 197M246 197Q259 189 272 196" fill="none" stroke="#362824" stroke-width="2"/><ellipse cx="211" cy="196" rx="4" ry="4" fill="#324e52"/><ellipse cx="259" cy="196" rx="4" ry="4" fill="#324e52"/><path d="M237 199L230 221Q236 225 243 220" fill="none" stroke="#9a6650" opacity=".6"/><path d="M218 239Q231 232 235 237Q243 233 253 239Q237 252 218 239" fill="#a66162"/><path d="M162 341Q105 350 89 600H378Q361 349 308 341L258 396L218 396Z" fill="url(#dress2)"/><path d="M161 349L193 454L231 400L274 454L311 349" stroke="#b196b0" stroke-width="1" fill="none" opacity=".5"/><path d="M207 316Q235 368 264 317" fill="none" stroke="#b196b0" stroke-width="2"/><circle cx="235" cy="345" r="4" fill="#b196b0"/><ellipse cx="176" cy="233" rx="4" ry="13" fill="none" stroke="#b196b0" stroke-width="2"/><ellipse cx="294" cy="233" rx="4" ry="13" fill="none" stroke="#b196b0" stroke-width="2"/></g><rect y="500" width="440" height="100" fill="url(#fade)"/><text x="24" y="568" fill="#b196b0" font-family="serif" font-size="11" letter-spacing="3">NOIR ATELIER / 063 · 03</text><text x="24" y="586" fill="#b9b3a3" font-family="sans-serif" font-size="9" letter-spacing="2">FIKTÍV DIGITÁLIS PORTRÉ · 21+</text></g></svg>