<svg xmlns="http://www.w3.org/2000/svg" width="440" height="600" viewBox="0 0 440 600"><title>Léna Vesper — fiktív, 44 éves digitális karakter</title><view id="look0" viewBox="0 0 440 600"/><view id="look1" viewBox="440 0 440 600"/><view id="look2" viewBox="880 0 440 600"/><defs><linearGradient id="skin"><stop stop-color="#825242"/><stop offset="1" stop-color="#825242" stop-opacity=".85"/></linearGradient><radialGradient id="bg0" cx="75%" cy="25%" r="90%"><stop stop-color="#4c4239"/><stop offset="1" stop-color="#101210"/></radialGradient><linearGradient id="dress0"><stop stop-color="#5b2734"/><stop offset="1" stop-color="#101211"/></linearGradient><radialGradient id="bg1" cx="75%" cy="25%" r="90%"><stop stop-color="#283c3a"/><stop offset="1" stop-color="#101210"/></radialGradient><linearGradient id="dress1"><stop stop-color="#604b38"/><stop offset="1" stop-color="#101211"/></linearGradient><radialGradient id="bg2" cx="75%" cy="25%" r="90%"><stop stop-color="#3c2c39"/><stop offset="1" stop-color="#101210"/></radialGradient><linearGradient id="dress2"><stop stop-color="#aa9473"/><stop offset="1" stop-color="#101211"/></linearGradient><linearGradient id="fade" x2="0" y2="1"><stop stop-color="#0c0e0d" stop-opacity="0"/><stop offset="1" stop-color="#0c0e0d"/></linearGradient></defs><g transform="translate(0,0)"><rect width="440" height="600" fill="url(#bg0)"/><circle cx="370" cy="130" r="170" fill="#c6ad76" opacity=".05"/><path d="M35 0v600M395 0v600M0 80h440" stroke="#c6ad76" opacity=".15"/><path d="M50 600V363Q90 250 130 340V600M355 600V270" stroke="#c6ad76" fill="none" opacity=".15"/><g transform="rotate(-3.3000000000000003 220 194)"><path d="M135 384Q90 94 220 99Q350 94 308 384Z" fill="#cec5af"/><path d="M135 139 Q110 284 145 424" fill="none" stroke="#cec5af" stroke-width="3" opacity=".7"/><path d="M142 151.62206477211845 Q118 284 152 424" fill="none" stroke="#cec5af" stroke-width="3" opacity=".7"/><path d="M149 152.63946140238522 Q126 284 159 424" fill="none" stroke="#cec5af" stroke-width="3" opacity=".7"/><path d="M156 141.116800120898 Q134 284 166 424" fill="none" stroke="#cec5af" stroke-width="3" opacity=".7"/><path d="M163 127.64796257038108 Q142 284 173 424" fill="none" stroke="#cec5af" stroke-width="3" opacity=".7"/><path d="M170 124.61613588005292 Q150 284 180 424" fill="none" stroke="#cec5af" stroke-width="3" opacity=".7"/><path d="M177 134.8087675270161 Q158 284 187 424" fill="none" stroke="#cec5af" stroke-width="3" opacity=".7"/><path d="M184 148.85479898078182 Q166 284 194 424" fill="none" stroke="#cec5af" stroke-width="3" opacity=".7"/><path d="M191 153.84037369935072 Q174 284 201 424" fill="none" stroke="#cec5af" stroke-width="3" opacity=".7"/><path d="M198 145.18177727862636 Q182 284 208 424" fill="none" stroke="#cec5af" stroke-width="3" opacity=".7"/><path d="M205 130.83968333665945 Q190 284 215 424" fill="none" stroke="#cec5af" stroke-width="3" opacity=".7"/><path d="M212 124.00014690173944 Q198 284 222 424" fill="none" stroke="#cec5af" stroke-width="3" opacity=".7"/><path d="M188 239V331L134 356Q220 429 308 356L252 331V239" fill="url(#skin)"/><path d="M183 276Q220 317 252 274V292Q220 322 183 302" fill="#523421" opacity=".15"/><ellipse cx="220" cy="194" rx="54" ry="78" fill="url(#skin)"/><ellipse cx="166" cy="209" rx="8" ry="19" fill="#825242"/><ellipse cx="274" cy="209" rx="8" ry="19" fill="#825242"/><path d="M154 200Q141 69 232 102Q320 98 287 229Q267 147 235 134Q190 152 154 200" fill="#cec5af"/><path d="M183 187Q196 178 210 185M230 185Q243 178 257 187" fill="none" stroke="#cec5af" stroke-width="3"/><path d="M183 199Q195 192 209 200M231 200Q244 192 257 199" fill="none" stroke="#362824" stroke-width="2"/><ellipse cx="196" cy="199" rx="4" ry="4" fill="#766341"/><ellipse cx="244" cy="199" rx="4" ry="4" fill="#766341"/><path d="M222 202L215 224Q221 228 228 223" fill="none" stroke="#9a6650" opacity=".6"/><path d="M203 242Q216 235 220 240Q228 236 238 242Q222 255 203 242" fill="#a66162"/><path d="M147 344Q90 353 74 600H363Q346 352 293 344L243 399L203 399Z" fill="url(#dress0)"/><path d="M146 352L178 457L216 403L259 457L296 352" stroke="#c6ad76" stroke-width="1" fill="none" opacity=".5"/><path d="M192 319Q220 371 249 320" fill="none" stroke="#c6ad76" stroke-width="2"/><circle cx="220" cy="348" r="4" fill="#c6ad76"/><ellipse cx="166" cy="236" rx="4" ry="13" fill="none" stroke="#c6ad76" stroke-width="2"/><ellipse cx="274" cy="236" rx="4" ry="13" fill="none" stroke="#c6ad76" stroke-width="2"/><path d="M157 149Q141 299 180 306L163 209M282 154Q299 296 265 308L276 206" fill="#cec5af"/></g><rect y="500" width="440" height="100" fill="url(#fade)"/><text x="24" y="568" fill="#c6ad76" font-family="serif" font-size="11" letter-spacing="3">NOIR ATELIER / 074 · 01</text><text x="24" y="586" fill="#b9b3a3" font-family="sans-serif" font-size="9" letter-spacing="2">FIKTÍV DIGITÁLIS PORTRÉ · 21+</text></g><g transform="translate(440,0)"><rect width="440" height="600" fill="url(#bg1)"/><circle cx="95" cy="130" r="170" fill="#8eada5" opacity=".05"/><path d="M35 0v600M395 0v600M0 80h440" stroke="#8eada5" opacity=".15"/><path d="M50 600V363Q90 250 130 340V600M355 600V270" stroke="#8eada5" fill="none" opacity=".15"/><g transform="rotate(-3.3000000000000003 220 194)"><path d="M135 384Q90 94 220 99Q350 94 308 384Z" fill="#cec5af"/><path d="M135 139 Q110 284 145 424" fill="none" stroke="#cec5af" stroke-width="3" opacity=".7"/><path d="M142 151.62206477211845 Q118 284 152 424" fill="none" stroke="#cec5af" stroke-width="3" opacity=".7"/><path d="M149 152.63946140238522 Q126 284 159 424" fill="none" stroke="#cec5af" stroke-width="3" opacity=".7"/><path d="M156 141.116800120898 Q134 284 166 424" fill="none" stroke="#cec5af" stroke-width="3" opacity=".7"/><path d="M163 127.64796257038108 Q142 284 173 424" fill="none" stroke="#cec5af" stroke-width="3" opacity=".7"/><path d="M170 124.61613588005292 Q150 284 180 424" fill="none" stroke="#cec5af" stroke-width="3" opacity=".7"/><path d="M177 134.8087675270161 Q158 284 187 424" fill="none" stroke="#cec5af" stroke-width="3" opacity=".7"/><path d="M184 148.85479898078182 Q166 284 194 424" fill="none" stroke="#cec5af" stroke-width="3" opacity=".7"/><path d="M191 153.84037369935072 Q174 284 201 424" fill="none" stroke="#cec5af" stroke-width="3" opacity=".7"/><path d="M198 145.18177727862636 Q182 284 208 424" fill="none" stroke="#cec5af" stroke-width="3" opacity=".7"/><path d="M205 130.83968333665945 Q190 284 215 424" fill="none" stroke="#cec5af" stroke-width="3" opacity=".7"/><path d="M212 124.00014690173944 Q198 284 222 424" fill="none" stroke="#cec5af" stroke-width="3" opacity=".7"/><path d="M188 239V331L134 356Q220 429 308 356L252 331V239" fill="url(#skin)"/><path d="M183 276Q220 317 252 274V292Q220 322 183 302" fill="#523421" opacity=".15"/><ellipse cx="220" cy="194" rx="54" ry="78" fill="url(#skin)"/><ellipse cx="166" cy="209" rx="8" ry="19" fill="#825242"/><ellipse cx="274" cy="209" rx="8" ry="19" fill="#825242"/><path d="M154 200Q141 69 232 102Q320 98 287 229Q267 147 235 134Q190 152 154 200" fill="#cec5af"/><path d="M183 187Q196 178 210 185M230 185Q243 178 257 187" fill="none" stroke="#cec5af" stroke-width="3"/><path d="M183 199Q195 192 209 200M231 200Q244 192 257 199" fill="none" stroke="#362824" stroke-width="2"/><ellipse cx="196" cy="199" rx="4" ry="4" fill="#766341"/><ellipse cx="244" cy="199" rx="4" ry="4" fill="#766341"/><path d="M222 202L215 224Q221 228 228 223" fill="none" stroke="#9a6650" opacity=".6"/><path d="M203 242Q216 235 220 240Q228 236 238 242Q222 255 203 242" fill="#a66162"/><path d="M147 344Q90 353 74 600H363Q346 352 293 344L243 399L203 399Z" fill="url(#dress1)"/><path d="M146 352L178 457L216 403L259 457L296 352" stroke="#8eada5" stroke-width="1" fill="none" opacity=".5"/><path d="M192 319Q220 371 249 320" fill="none" stroke="#8eada5" stroke-width="2"/><circle cx="220" cy="348" r="4" fill="#8eada5"/><ellipse cx="166" cy="236" rx="4" ry="13" fill="none" stroke="#8eada5" stroke-width="2"/><ellipse cx="274" cy="236" rx="4" ry="13" fill="none" stroke="#8eada5" stroke-width="2"/><path d="M157 149Q141 299 180 306L163 209M282 154Q299 296 265 308L276 206" fill="#cec5af"/></g><rect y="500" width="440" height="100" fill="url(#fade)"/><text x="24" y="568" fill="#8eada5" font-family="serif" font-size="11" letter-spacing="3">NOIR ATELIER / 074 · 02</text><text x="24" y="586" fill="#b9b3a3" font-family="sans-serif" font-size="9" letter-spacing="2">FIKTÍV DIGITÁLIS PORTRÉ · 21+</text></g><g transform="translate(880,0)"><rect width="440" height="600" fill="url(#bg2)"/><circle cx="370" cy="130" r="170" fill="#b196b0" opacity=".05"/><path d="M35 0v600M395 0v600M0 80h440" stroke="#b196b0" opacity=".15"/><path d="M50 600V363Q90 250 130 340V600M355 600V270" stroke="#b196b0" fill="none" opacity=".15"/><g transform="rotate(-3.3000000000000003 220 194)"><path d="M135 384Q90 94 220 99Q350 94 308 384Z" fill="#cec5af"/><path d="M135 139 Q110 284 145 424" fill="none" stroke="#cec5af" stroke-width="3" opacity=".7"/><path d="M142 151.62206477211845 Q118 284 152 424" fill="none" stroke="#cec5af" stroke-width="3" opacity=".7"/><path d="M149 152.63946140238522 Q126 284 159 424" fill="none" stroke="#cec5af" stroke-width="3" opacity=".7"/><path d="M156 141.116800120898 Q134 284 166 424" fill="none" stroke="#cec5af" stroke-width="3" opacity=".7"/><path d="M163 127.64796257038108 Q142 284 173 424" fill="none" stroke="#cec5af" stroke-width="3" opacity=".7"/><path d="M170 124.61613588005292 Q150 284 180 424" fill="none" stroke="#cec5af" stroke-width="3" opacity=".7"/><path d="M177 134.8087675270161 Q158 284 187 424" fill="none" stroke="#cec5af" stroke-width="3" opacity=".7"/><path d="M184 148.85479898078182 Q166 284 194 424" fill="none" stroke="#cec5af" stroke-width="3" opacity=".7"/><path d="M191 153.84037369935072 Q174 284 201 424" fill="none" stroke="#cec5af" stroke-width="3" opacity=".7"/><path d="M198 145.18177727862636 Q182 284 208 424" fill="none" stroke="#cec5af" stroke-width="3" opacity=".7"/><path d="M205 130.83968333665945 Q190 284 215 424" fill="none" stroke="#cec5af" stroke-width="3" opacity=".7"/><path d="M212 124.00014690173944 Q198 284 222 424" fill="none" stroke="#cec5af" stroke-width="3" opacity=".7"/><path d="M188 239V331L134 356Q220 429 308 356L252 331V239" fill="url(#skin)"/><path d="M183 276Q220 317 252 274V292Q220 322 183 302" fill="#523421" opacity=".15"/><ellipse cx="220" cy="194" rx="54" ry="78" fill="url(#skin)"/><ellipse cx="166" cy="209" rx="8" ry="19" fill="#825242"/><ellipse cx="274" cy="209" rx="8" ry="19" fill="#825242"/><path d="M154 200Q141 69 232 102Q320 98 287 229Q267 147 235 134Q190 152 154 200" fill="#cec5af"/><path d="M183 187Q196 178 210 185M230 185Q243 178 257 187" fill="none" stroke="#cec5af" stroke-width="3"/><path d="M183 199Q195 192 209 200M231 200Q244 192 257 199" fill="none" stroke="#362824" stroke-width="2"/><ellipse cx="196" cy="199" rx="4" ry="4" fill="#766341"/><ellipse cx="244" cy="199" rx="4" ry="4" fill="#766341"/><path d="M222 202L215 224Q221 228 228 223" fill="none" stroke="#9a6650" opacity=".6"/><path d="M203 242Q216 235 220 240Q228 236 238 242Q222 255 203 242" fill="#a66162"/><path d="M147 344Q90 353 74 600H363Q346 352 293 344L243 399L203 399Z" fill="url(#dress2)"/><path d="M146 352L178 457L216 403L259 457L296 352" stroke="#b196b0" stroke-width="1" fill="none" opacity=".5"/><path d="M192 319Q220 371 249 320" fill="none" stroke="#b196b0" stroke-width="2"/><circle cx="220" cy="348" r="4" fill="#b196b0"/><ellipse cx="166" cy="236" rx="4" ry="13" fill="none" stroke="#b196b0" stroke-width="2"/><ellipse cx="274" cy="236" rx="4" ry="13" fill="none" stroke="#b196b0" stroke-width="2"/><path d="M157 149Q141 299 180 306L163 209M282 154Q299 296 265 308L276 206" fill="#cec5af"/></g><rect y="500" width="440" height="100" fill="url(#fade)"/><text x="24" y="568" fill="#b196b0" font-family="serif" font-size="11" letter-spacing="3">NOIR ATELIER / 074 · 03</text><text x="24" y="586" fill="#b9b3a3" font-family="sans-serif" font-size="9" letter-spacing="2">FIKTÍV DIGITÁLIS PORTRÉ · 21+</text></g></svg>