<svg xmlns="http://www.w3.org/2000/svg" width="440" height="600" viewBox="0 0 440 600"><title>Izabella Vesper — fiktív, 49 éves digitális karakter</title><view id="look0" viewBox="0 0 440 600"/><view id="look1" viewBox="440 0 440 600"/><view id="look2" viewBox="880 0 440 600"/><defs><linearGradient id="skin"><stop stop-color="#825242"/><stop offset="1" stop-color="#825242" stop-opacity=".85"/></linearGradient><radialGradient id="bg0" cx="75%" cy="25%" r="90%"><stop stop-color="#4c4239"/><stop offset="1" stop-color="#101210"/></radialGradient><linearGradient id="dress0"><stop stop-color="#595451"/><stop offset="1" stop-color="#101211"/></linearGradient><radialGradient id="bg1" cx="75%" cy="25%" r="90%"><stop stop-color="#283c3a"/><stop offset="1" stop-color="#101210"/></radialGradient><linearGradient id="dress1"><stop stop-color="#5e405e"/><stop offset="1" stop-color="#101211"/></linearGradient><radialGradient id="bg2" cx="75%" cy="25%" r="90%"><stop stop-color="#3c2c39"/><stop offset="1" stop-color="#101210"/></radialGradient><linearGradient id="dress2"><stop stop-color="#181a1b"/><stop offset="1" stop-color="#101211"/></linearGradient><linearGradient id="fade" x2="0" y2="1"><stop stop-color="#0c0e0d" stop-opacity="0"/><stop offset="1" stop-color="#0c0e0d"/></linearGradient></defs><g transform="translate(0,0)"><rect width="440" height="600" fill="url(#bg0)"/><circle cx="370" cy="130" r="170" fill="#c6ad76" opacity=".05"/><path d="M35 0v600M395 0v600M0 80h440" stroke="#c6ad76" opacity=".15"/><path d="M50 600V294Q90 250 130 340V600M355 600V270" stroke="#c6ad76" fill="none" opacity=".15"/><g transform="rotate(-1.1 205 197)"><path d="M120 387Q75 97 205 102Q335 97 293 387Z" fill="#211714"/><path d="M120 142 Q95 287 130 307" fill="none" stroke="#211714" stroke-width="3" opacity=".7"/><path d="M127 154.62206477211845 Q103 287 137 307" fill="none" stroke="#211714" stroke-width="3" opacity=".7"/><path d="M134 155.63946140238522 Q111 287 144 307" fill="none" stroke="#211714" stroke-width="3" opacity=".7"/><path d="M141 144.116800120898 Q119 287 151 307" fill="none" stroke="#211714" stroke-width="3" opacity=".7"/><path d="M148 130.64796257038108 Q127 287 158 307" fill="none" stroke="#211714" stroke-width="3" opacity=".7"/><path d="M155 127.61613588005292 Q135 287 165 307" fill="none" stroke="#211714" stroke-width="3" opacity=".7"/><path d="M162 137.8087675270161 Q143 287 172 307" fill="none" stroke="#211714" stroke-width="3" opacity=".7"/><path d="M169 151.85479898078182 Q151 287 179 307" fill="none" stroke="#211714" stroke-width="3" opacity=".7"/><path d="M176 156.84037369935072 Q159 287 186 307" fill="none" stroke="#211714" stroke-width="3" opacity=".7"/><path d="M183 148.18177727862636 Q167 287 193 307" fill="none" stroke="#211714" stroke-width="3" opacity=".7"/><path d="M190 133.83968333665945 Q175 287 200 307" fill="none" stroke="#211714" stroke-width="3" opacity=".7"/><path d="M197 127.00014690173944 Q183 287 207 307" fill="none" stroke="#211714" stroke-width="3" opacity=".7"/><path d="M173 242V334L119 359Q205 432 293 359L237 334V242" fill="url(#skin)"/><path d="M168 279Q205 320 237 277V295Q205 325 168 305" fill="#523421" opacity=".15"/><ellipse cx="205" cy="197" rx="57" ry="76" fill="url(#skin)"/><ellipse cx="148" cy="212" rx="8" ry="19" fill="#825242"/><ellipse cx="262" cy="212" rx="8" ry="19" fill="#825242"/><path d="M136 203Q123 72 217 105Q305 101 275 232Q255 150 220 137Q175 155 136 203" fill="#211714"/><path d="M168 190Q181 181 195 188M215 188Q228 181 242 190" fill="none" stroke="#211714" stroke-width="3"/><path d="M168 202Q180 195 194 203M216 203Q229 195 242 202" fill="none" stroke="#362824" stroke-width="2"/><ellipse cx="181" cy="202" rx="4" ry="4" fill="#424941"/><ellipse cx="229" cy="202" rx="4" ry="4" fill="#424941"/><path d="M207 205L200 227Q206 231 213 226" fill="none" stroke="#9a6650" opacity=".6"/><path d="M188 245Q201 238 205 243Q213 239 223 245Q207 258 188 245" fill="#8e3e4f"/><path d="M132 347Q75 356 59 600H348Q331 355 278 347L228 402L188 402Z" fill="url(#dress0)"/><path d="M131 355L163 460L201 406L244 460L281 355" stroke="#c6ad76" stroke-width="1" fill="none" opacity=".5"/><path d="M177 322Q205 374 234 323" fill="none" stroke="#c6ad76" stroke-width="2"/><circle cx="205" cy="351" r="4" fill="#c6ad76"/><ellipse cx="148" cy="239" rx="4" ry="13" fill="none" stroke="#c6ad76" stroke-width="2"/><ellipse cx="262" cy="239" rx="4" ry="13" fill="none" stroke="#c6ad76" stroke-width="2"/><path d="M153 152Q183 79 253 126Q209 162 153 152" fill="#211714"/></g><rect y="500" width="440" height="100" fill="url(#fade)"/><text x="24" y="568" fill="#c6ad76" font-family="serif" font-size="11" letter-spacing="3">NOIR ATELIER / 085 · 01</text><text x="24" y="586" fill="#b9b3a3" font-family="sans-serif" font-size="9" letter-spacing="2">FIKTÍV DIGITÁLIS PORTRÉ · 21+</text></g><g transform="translate(440,0)"><rect width="440" height="600" fill="url(#bg1)"/><circle cx="95" cy="130" r="170" fill="#8eada5" opacity=".05"/><path d="M35 0v600M395 0v600M0 80h440" stroke="#8eada5" opacity=".15"/><path d="M50 600V294Q90 250 130 340V600M355 600V270" stroke="#8eada5" fill="none" opacity=".15"/><g transform="rotate(-1.1 205 197)"><path d="M120 387Q75 97 205 102Q335 97 293 387Z" fill="#211714"/><path d="M120 142 Q95 287 130 307" fill="none" stroke="#211714" stroke-width="3" opacity=".7"/><path d="M127 154.62206477211845 Q103 287 137 307" fill="none" stroke="#211714" stroke-width="3" opacity=".7"/><path d="M134 155.63946140238522 Q111 287 144 307" fill="none" stroke="#211714" stroke-width="3" opacity=".7"/><path d="M141 144.116800120898 Q119 287 151 307" fill="none" stroke="#211714" stroke-width="3" opacity=".7"/><path d="M148 130.64796257038108 Q127 287 158 307" fill="none" stroke="#211714" stroke-width="3" opacity=".7"/><path d="M155 127.61613588005292 Q135 287 165 307" fill="none" stroke="#211714" stroke-width="3" opacity=".7"/><path d="M162 137.8087675270161 Q143 287 172 307" fill="none" stroke="#211714" stroke-width="3" opacity=".7"/><path d="M169 151.85479898078182 Q151 287 179 307" fill="none" stroke="#211714" stroke-width="3" opacity=".7"/><path d="M176 156.84037369935072 Q159 287 186 307" fill="none" stroke="#211714" stroke-width="3" opacity=".7"/><path d="M183 148.18177727862636 Q167 287 193 307" fill="none" stroke="#211714" stroke-width="3" opacity=".7"/><path d="M190 133.83968333665945 Q175 287 200 307" fill="none" stroke="#211714" stroke-width="3" opacity=".7"/><path d="M197 127.00014690173944 Q183 287 207 307" fill="none" stroke="#211714" stroke-width="3" opacity=".7"/><path d="M173 242V334L119 359Q205 432 293 359L237 334V242" fill="url(#skin)"/><path d="M168 279Q205 320 237 277V295Q205 325 168 305" fill="#523421" opacity=".15"/><ellipse cx="205" cy="197" rx="57" ry="76" fill="url(#skin)"/><ellipse cx="148" cy="212" rx="8" ry="19" fill="#825242"/><ellipse cx="262" cy="212" rx="8" ry="19" fill="#825242"/><path d="M136 203Q123 72 217 105Q305 101 275 232Q255 150 220 137Q175 155 136 203" fill="#211714"/><path d="M168 190Q181 181 195 188M215 188Q228 181 242 190" fill="none" stroke="#211714" stroke-width="3"/><path d="M168 202Q180 195 194 203M216 203Q229 195 242 202" fill="none" stroke="#362824" stroke-width="2"/><ellipse cx="181" cy="202" rx="4" ry="4" fill="#424941"/><ellipse cx="229" cy="202" rx="4" ry="4" fill="#424941"/><path d="M207 205L200 227Q206 231 213 226" fill="none" stroke="#9a6650" opacity=".6"/><path d="M188 245Q201 238 205 243Q213 239 223 245Q207 258 188 245" fill="#8e3e4f"/><path d="M132 347Q75 356 59 600H348Q331 355 278 347L228 402L188 402Z" fill="url(#dress1)"/><path d="M131 355L163 460L201 406L244 460L281 355" stroke="#8eada5" stroke-width="1" fill="none" opacity=".5"/><path d="M177 322Q205 374 234 323" fill="none" stroke="#8eada5" stroke-width="2"/><circle cx="205" cy="351" r="4" fill="#8eada5"/><ellipse cx="148" cy="239" rx="4" ry="13" fill="none" stroke="#8eada5" stroke-width="2"/><ellipse cx="262" cy="239" rx="4" ry="13" fill="none" stroke="#8eada5" stroke-width="2"/><path d="M153 152Q183 79 253 126Q209 162 153 152" fill="#211714"/></g><rect y="500" width="440" height="100" fill="url(#fade)"/><text x="24" y="568" fill="#8eada5" font-family="serif" font-size="11" letter-spacing="3">NOIR ATELIER / 085 · 02</text><text x="24" y="586" fill="#b9b3a3" font-family="sans-serif" font-size="9" letter-spacing="2">FIKTÍV DIGITÁLIS PORTRÉ · 21+</text></g><g transform="translate(880,0)"><rect width="440" height="600" fill="url(#bg2)"/><circle cx="370" cy="130" r="170" fill="#b196b0" opacity=".05"/><path d="M35 0v600M395 0v600M0 80h440" stroke="#b196b0" opacity=".15"/><path d="M50 600V294Q90 250 130 340V600M355 600V270" stroke="#b196b0" fill="none" opacity=".15"/><g transform="rotate(-1.1 205 197)"><path d="M120 387Q75 97 205 102Q335 97 293 387Z" fill="#211714"/><path d="M120 142 Q95 287 130 307" fill="none" stroke="#211714" stroke-width="3" opacity=".7"/><path d="M127 154.62206477211845 Q103 287 137 307" fill="none" stroke="#211714" stroke-width="3" opacity=".7"/><path d="M134 155.63946140238522 Q111 287 144 307" fill="none" stroke="#211714" stroke-width="3" opacity=".7"/><path d="M141 144.116800120898 Q119 287 151 307" fill="none" stroke="#211714" stroke-width="3" opacity=".7"/><path d="M148 130.64796257038108 Q127 287 158 307" fill="none" stroke="#211714" stroke-width="3" opacity=".7"/><path d="M155 127.61613588005292 Q135 287 165 307" fill="none" stroke="#211714" stroke-width="3" opacity=".7"/><path d="M162 137.8087675270161 Q143 287 172 307" fill="none" stroke="#211714" stroke-width="3" opacity=".7"/><path d="M169 151.85479898078182 Q151 287 179 307" fill="none" stroke="#211714" stroke-width="3" opacity=".7"/><path d="M176 156.84037369935072 Q159 287 186 307" fill="none" stroke="#211714" stroke-width="3" opacity=".7"/><path d="M183 148.18177727862636 Q167 287 193 307" fill="none" stroke="#211714" stroke-width="3" opacity=".7"/><path d="M190 133.83968333665945 Q175 287 200 307" fill="none" stroke="#211714" stroke-width="3" opacity=".7"/><path d="M197 127.00014690173944 Q183 287 207 307" fill="none" stroke="#211714" stroke-width="3" opacity=".7"/><path d="M173 242V334L119 359Q205 432 293 359L237 334V242" fill="url(#skin)"/><path d="M168 279Q205 320 237 277V295Q205 325 168 305" fill="#523421" opacity=".15"/><ellipse cx="205" cy="197" rx="57" ry="76" fill="url(#skin)"/><ellipse cx="148" cy="212" rx="8" ry="19" fill="#825242"/><ellipse cx="262" cy="212" rx="8" ry="19" fill="#825242"/><path d="M136 203Q123 72 217 105Q305 101 275 232Q255 150 220 137Q175 155 136 203" fill="#211714"/><path d="M168 190Q181 181 195 188M215 188Q228 181 242 190" fill="none" stroke="#211714" stroke-width="3"/><path d="M168 202Q180 195 194 203M216 203Q229 195 242 202" fill="none" stroke="#362824" stroke-width="2"/><ellipse cx="181" cy="202" rx="4" ry="4" fill="#424941"/><ellipse cx="229" cy="202" rx="4" ry="4" fill="#424941"/><path d="M207 205L200 227Q206 231 213 226" fill="none" stroke="#9a6650" opacity=".6"/><path d="M188 245Q201 238 205 243Q213 239 223 245Q207 258 188 245" fill="#8e3e4f"/><path d="M132 347Q75 356 59 600H348Q331 355 278 347L228 402L188 402Z" fill="url(#dress2)"/><path d="M131 355L163 460L201 406L244 460L281 355" stroke="#b196b0" stroke-width="1" fill="none" opacity=".5"/><path d="M177 322Q205 374 234 323" fill="none" stroke="#b196b0" stroke-width="2"/><circle cx="205" cy="351" r="4" fill="#b196b0"/><ellipse cx="148" cy="239" rx="4" ry="13" fill="none" stroke="#b196b0" stroke-width="2"/><ellipse cx="262" cy="239" rx="4" ry="13" fill="none" stroke="#b196b0" stroke-width="2"/><path d="M153 152Q183 79 253 126Q209 162 153 152" fill="#211714"/></g><rect y="500" width="440" height="100" fill="url(#fade)"/><text x="24" y="568" fill="#b196b0" font-family="serif" font-size="11" letter-spacing="3">NOIR ATELIER / 085 · 03</text><text x="24" y="586" fill="#b9b3a3" font-family="sans-serif" font-size="9" letter-spacing="2">FIKTÍV DIGITÁLIS PORTRÉ · 21+</text></g></svg>